<svg xmlns="http://www.w3.org/2000/svg" viewBox="0 0 41.94 32"><defs><style>.cls-1{fill:#197abf;}.cls-2{fill:#fff;}</style></defs><title>Asset 9</title><g id="Layer_2" data-name="Layer 2"><g id="Layer_1-2" data-name="Layer 1"><path class="cls-1" d="M39.21,0H2.74A2.78,2.78,0,0,0,0,2.82V29.18A2.78,2.78,0,0,0,2.74,32H39.21a2.78,2.78,0,0,0,2.74-2.82V2.82A2.78,2.78,0,0,0,39.21,0Z"/><path class="cls-2" d="M7.69,16.42H10L8.84,13.61Zm32-5.35H33.82l-1.44,1.55-1.29-1.55H18.6l-1.15,2.53-1.15-2.53h-5V12.2l-.57-1.13H6.4L2.24,20.93h5l.57-1.55H9.27l.57,1.55h5.6V19.8l.43,1.13h2.87l.43-1.27v1.27H30.66l1.44-1.55,1.29,1.55h5.89L35.54,16ZM22.33,19.52H20.76V14l-2.44,5.49H16.88L14.44,14v5.49h-3.3L10.56,18H7.12l-.57,1.55H4.68l3-7h2.44l2.73,6.62V12.48h2.73l2.15,4.79,2-4.79h2.73v7Zm14.21,0H34.39l-1.87-2.39-2.15,2.39H23.91v-7h6.6l2,2.25,2.15-2.25h2L33.53,16ZM25.49,13.89v1.27h3.59v1.41H25.49V18h4l1.87-2.11-1.72-2Z"/></g></g></svg>