<svg id="Layer_1" data-name="Layer 1" xmlns="http://www.w3.org/2000/svg" viewBox="0 0 165.52 105.97"><defs><style>.cls-1{fill:#231f20;}.cls-2{fill:#fff;}</style></defs><title>Apple_Pay_Payment_Mark</title><path id="_Path_" data-name="&lt;Path&gt;" class="cls-1" d="M156.79,6.21H19.22l-1.43,0a20.78,20.78,0,0,0-3.11.27,10.51,10.51,0,0,0-3,1,9.94,9.94,0,0,0-4.35,4.35,10.46,10.46,0,0,0-1,3,20.65,20.65,0,0,0-.28,3.11c0,.48,0,1,0,1.43s0,1.13,0,1.7V97.35c0,.57,0,1.13,0,1.7s0,1,0,1.43a20.64,20.64,0,0,0,.28,3.11,10.46,10.46,0,0,0,1,3,9.94,9.94,0,0,0,4.35,4.35,10.47,10.47,0,0,0,3,1,20.94,20.94,0,0,0,3.11.27l1.43,0H158.48l1.43,0a21,21,0,0,0,3.11-.27,10.48,10.48,0,0,0,3-1,9.94,9.94,0,0,0,4.35-4.35,10.4,10.4,0,0,0,1-3,20.63,20.63,0,0,0,.27-3.11q0-.71,0-1.43c0-.57,0-1.13,0-1.7V21c0-.57,0-1.13,0-1.7s0-1,0-1.43a20.64,20.64,0,0,0-.27-3.11,10.4,10.4,0,0,0-1-3A9.94,9.94,0,0,0,166,7.48a10.52,10.52,0,0,0-3-1,20.84,20.84,0,0,0-3.11-.27l-1.43,0Z" transform="translate(-6.09 -6.21)"/><path id="_Path_2" data-name="&lt;Path&gt;" class="cls-2" d="M156.79,9.74h1.67l1.36,0a17.66,17.66,0,0,1,2.58.22,7,7,0,0,1,2,.65,6.41,6.41,0,0,1,2.8,2.81,6.88,6.88,0,0,1,.64,2,17.56,17.56,0,0,1,.22,2.58c0,.45,0,.9,0,1.36s0,1.11,0,1.67V97.35c0,.56,0,1.11,0,1.68s0,.9,0,1.35a17.54,17.54,0,0,1-.22,2.59,6.85,6.85,0,0,1-.64,2,6.41,6.41,0,0,1-2.81,2.81,6.92,6.92,0,0,1-2,.65,18,18,0,0,1-2.57.22l-1.38,0H19.23l-1.35,0a18,18,0,0,1-2.58-.22,6.94,6.94,0,0,1-2-.65,6.41,6.41,0,0,1-2.8-2.8,6.93,6.93,0,0,1-.65-2,17.47,17.47,0,0,1-.22-2.58c0-.45,0-.9,0-1.35V19.36c0-.45,0-.9,0-1.36a17.49,17.49,0,0,1,.22-2.59,6.92,6.92,0,0,1,.65-2,6.41,6.41,0,0,1,2.8-2.8,7,7,0,0,1,2-.65,17.63,17.63,0,0,1,2.58-.22l1.35,0H156.79" transform="translate(-6.09 -6.21)"/><g id="_Group_" data-name="&lt;Group&gt;"><g id="_Group_2" data-name="&lt;Group&gt;"><path id="_Path_3" data-name="&lt;Path&gt;" class="cls-1" d="M49.6,42a9.15,9.15,0,0,0,2.1-6.52,9.07,9.07,0,0,0-6,3.11,8.56,8.56,0,0,0-2.16,6.27A7.57,7.57,0,0,0,49.6,42" transform="translate(-6.09 -6.21)"/><path id="_Path_4" data-name="&lt;Path&gt;" class="cls-1" d="M51.68,45.29c-3.35-.2-6.2,1.9-7.79,1.9s-4-1.8-6.7-1.75a9.87,9.87,0,0,0-8.4,5.1c-3.6,6.2-.95,15.4,2.55,20.45,1.7,2.5,3.75,5.25,6.45,5.15s3.55-1.65,6.65-1.65,4,1.65,6.7,1.6,4.55-2.5,6.25-5a22.2,22.2,0,0,0,2.8-5.75,9.08,9.08,0,0,1-5.45-8.25,9.26,9.26,0,0,1,4.4-7.75,9.57,9.57,0,0,0-7.45-4" transform="translate(-6.09 -6.21)"/></g><g id="_Group_3" data-name="&lt;Group&gt;"><path id="_Compound_Path_" data-name="&lt;Compound Path&gt;" class="cls-1" d="M85.06,38.32c7.28,0,12.35,5,12.35,12.32S92.24,63,84.88,63H76.82V75.83H71V38.32ZM76.82,58.13H83.5c5.07,0,8-2.73,8-7.46s-2.88-7.43-7.93-7.43H76.82Z" transform="translate(-6.09 -6.21)"/><path id="_Compound_Path_2" data-name="&lt;Compound Path&gt;" class="cls-1" d="M98.85,68.06c0-4.81,3.67-7.56,10.42-8l7.25-.44V57.55c0-3-2-4.7-5.56-4.7-2.94,0-5.07,1.51-5.51,3.82H100.2c.16-4.86,4.73-8.4,10.92-8.4,6.65,0,11,3.48,11,8.89V75.83h-5.38v-4.5h-.13A9.59,9.59,0,0,1,108,76.11C102.62,76.11,98.85,72.89,98.85,68.06Zm17.68-2.42V63.53l-6.47.42c-3.64.23-5.54,1.59-5.54,4s2,3.77,5.07,3.77C113.54,71.67,116.53,69.15,116.53,65.64Z" transform="translate(-6.09 -6.21)"/><path id="_Compound_Path_3" data-name="&lt;Compound Path&gt;" class="cls-1" d="M127.06,85.86v-4.5a17.14,17.14,0,0,0,1.72.1c2.57,0,4-1.09,4.91-3.9l.52-1.66-9.85-27.29h6.08l6.86,22.15h.13l6.86-22.15h5.93L140,77.28c-2.34,6.58-5,8.73-10.68,8.73A15.93,15.93,0,0,1,127.06,85.86Z" transform="translate(-6.09 -6.21)"/></g></g></svg>