<?xml version="1.0" encoding="utf-8"?>
<!-- Generated by IcoMoon.io -->
<!DOCTYPE svg PUBLIC "-//W3C//DTD SVG 1.1//EN" "http://www.w3.org/Graphics/SVG/1.1/DTD/svg11.dtd">
<svg version="1.1" xmlns="http://www.w3.org/2000/svg" xmlns:xlink="http://www.w3.org/1999/xlink" width="51" height="32" viewBox="0 0 51 32">
<path fill="#fefefe" d="M3.84 31.667c-1.94 0-3.519-1.578-3.519-3.519v-24.31c0-1.94 1.578-3.519 3.519-3.519h43.501c1.94 0 3.519 1.578 3.519 3.519v24.31c0 1.94-1.578 3.519-3.519 3.519h-43.501z"></path>
<path fill="#bbbdbf" d="M47.341 0h-43.503c-2.12 0-3.839 1.719-3.839 3.839v24.31c0 2.12 1.719 3.839 3.839 3.839h43.503c2.119 0 3.838-1.719 3.838-3.839v-24.31c0-2.12-1.72-3.839-3.838-3.839zM47.341 0.641c1.764 0 3.198 1.434 3.198 3.198v24.31c0 1.764-1.434 3.198-3.198 3.198h-43.503c-1.764 0-3.198-1.434-3.198-3.198v-24.31c0-1.764 1.434-3.198 3.198-3.198h43.503z"></path>
<path fill="#71b266" d="M33.283 16.463h2.232c0.012 0.001 0.024 0.001 0.037 0.001 0.012 0.001 0.024 0.001 0.037 0.003s0.024 0.002 0.036 0.003c0.012 0.002 0.025 0.003 0.038 0.004s0.024 0.004 0.036 0.005c0.013 0.003 0.026 0.004 0.036 0.006 0.009 0 0.016 0.002 0.022 0.004l0.015 0.003c0.012 0.003 0.024 0.006 0.036 0.010 0.012 0.003 0.024 0.006 0.037 0.010 0.013 0.005 0.025 0.009 0.037 0.013s0.024 0.010 0.036 0.014c0.012 0.004 0.024 0.010 0.037 0.015s0.024 0.012 0.037 0.017c0.012 0.007 0.024 0.013 0.036 0.019 0.013 0.008 0.025 0.014 0.037 0.022 0.013 0.008 0.025 0.015 0.037 0.024s0.024 0.017 0.036 0.026c0.013 0.010 0.026 0.019 0.038 0.029 0.013 0.012 0.024 0.021 0.036 0.033s0.025 0.022 0.037 0.036c0.013 0.013 0.025 0.026 0.037 0.040s0.024 0.029 0.036 0.044c0.013 0.017 0.026 0.034 0.037 0.051 0.013 0.019 0.025 0.038 0.037 0.058 0.013 0.022 0.026 0.045 0.036 0.069 0.013 0.028 0.025 0.056 0.037 0.086 0.013 0.040 0.027 0.081 0.037 0.124 0.016 0.074 0.025 0.152 0.025 0.233s-0.009 0.161-0.025 0.234c-0.010 0.042-0.023 0.084-0.037 0.124-0.012 0.030-0.024 0.060-0.037 0.088-0.011 0.023-0.023 0.046-0.036 0.068-0.012 0.020-0.024 0.040-0.037 0.058-0.012 0.017-0.024 0.034-0.037 0.051-0.012 0.015-0.024 0.030-0.036 0.044s-0.024 0.027-0.037 0.040c-0.012 0.012-0.025 0.024-0.037 0.035s-0.024 0.021-0.036 0.033c-0.012 0.010-0.024 0.019-0.038 0.028-0.012 0.010-0.024 0.018-0.036 0.026s-0.024 0.017-0.037 0.024c-0.012 0.008-0.024 0.014-0.037 0.022-0.012 0.007-0.024 0.013-0.036 0.019-0.013 0.007-0.024 0.012-0.037 0.018s-0.025 0.011-0.037 0.015c-0.013 0.004-0.024 0.010-0.036 0.013-0.012 0.004-0.024 0.009-0.037 0.013s-0.025 0.008-0.037 0.011-0.024 0.006-0.036 0.010l-0.015 0.004c-0.006 0.001-0.013 0.003-0.022 0.004-0.011 0.001-0.023 0.004-0.036 0.005-0.012 0.002-0.024 0.003-0.036 0.004s-0.026 0.003-0.038 0.004-0.024 0.003-0.036 0.003c-0.013 0.001-0.026 0.002-0.037 0.003-0.013 0.001-0.026 0.001-0.037 0.001h-2.236v-2.004h0.004zM36.234 14.194c0.014 0.067 0.023 0.138 0.023 0.213s-0.009 0.147-0.023 0.214c-0.010 0.043-0.022 0.085-0.037 0.125-0.011 0.029-0.022 0.057-0.036 0.084-0.012 0.022-0.024 0.044-0.037 0.067-0.012 0.019-0.023 0.037-0.037 0.055-0.012 0.015-0.024 0.031-0.036 0.047-0.013 0.014-0.024 0.028-0.038 0.042-0.012 0.012-0.024 0.025-0.036 0.036s-0.024 0.022-0.037 0.033c-0.012 0.010-0.024 0.020-0.037 0.029s-0.024 0.018-0.036 0.026-0.024 0.016-0.037 0.024c-0.012 0.008-0.024 0.015-0.037 0.022s-0.024 0.013-0.036 0.019-0.024 0.012-0.037 0.017c-0.012 0.006-0.025 0.011-0.037 0.016s-0.024 0.009-0.036 0.013c-0.012 0.004-0.024 0.008-0.037 0.012s-0.024 0.006-0.037 0.010c-0.012 0.004-0.024 0.007-0.037 0.009-0.012 0.003-0.024 0.005-0.037 0.008l-0.009 0.001c-0.006 0.001-0.017 0.002-0.027 0.004-0.012 0.001-0.024 0.003-0.037 0.004-0.012 0.001-0.024 0.003-0.037 0.003s-0.024 0.002-0.036 0.003c-0.013 0.001-0.026 0.001-0.037 0.001-0.013 0.001-0.025 0.001-0.037 0.001h-1.994v-1.85l2.048 0.001c0.012 0.001 0.024 0.001 0.037 0.002 0.012 0.001 0.024 0.001 0.036 0.002s0.026 0.002 0.037 0.004c0.013 0.001 0.026 0.002 0.037 0.004 0.010 0.001 0.020 0.002 0.027 0.003l0.009 0.002c0.013 0.001 0.025 0.004 0.037 0.007 0.013 0.003 0.025 0.006 0.037 0.009s0.024 0.006 0.037 0.010 0.025 0.008 0.037 0.012 0.024 0.009 0.036 0.013c0.012 0.005 0.025 0.010 0.037 0.016 0.013 0.005 0.025 0.012 0.037 0.017s0.024 0.012 0.036 0.019c0.013 0.007 0.025 0.014 0.037 0.022s0.025 0.015 0.037 0.024 0.024 0.017 0.036 0.027c0.013 0.009 0.026 0.019 0.037 0.029 0.013 0.011 0.024 0.022 0.037 0.033s0.024 0.024 0.036 0.037c0.013 0.013 0.026 0.027 0.038 0.041s0.024 0.031 0.036 0.047c0.013 0.018 0.026 0.037 0.037 0.056 0.013 0.021 0.025 0.043 0.037 0.066 0.013 0.027 0.026 0.055 0.036 0.084-0.001 0.040 0.011 0.081 0.020 0.125v0zM40.781 4.602h0.015v18.996c0 0.114-0.005 0.226-0.015 0.337-0.008 0.097-0.020 0.195-0.037 0.29-0.010 0.064-0.022 0.127-0.036 0.19-0.013 0.051-0.024 0.102-0.037 0.153-0.012 0.042-0.024 0.086-0.037 0.129-0.013 0.039-0.024 0.077-0.037 0.116-0.012 0.035-0.024 0.069-0.037 0.103-0.012 0.032-0.024 0.064-0.036 0.095s-0.024 0.060-0.037 0.089c-0.012 0.027-0.024 0.055-0.037 0.082s-0.024 0.052-0.036 0.077c-0.012 0.025-0.024 0.049-0.037 0.074-0.012 0.023-0.025 0.047-0.037 0.069s-0.024 0.044-0.036 0.067c-0.013 0.020-0.024 0.042-0.038 0.063-0.012 0.020-0.024 0.040-0.036 0.061s-0.024 0.040-0.037 0.058c-0.012 0.019-0.024 0.038-0.036 0.056-0.013 0.017-0.024 0.036-0.036 0.054-0.013 0.017-0.025 0.035-0.037 0.052-0.013 0.017-0.025 0.034-0.037 0.050s-0.024 0.033-0.036 0.048c-0.013 0.016-0.025 0.032-0.038 0.047s-0.024 0.030-0.036 0.045c-0.012 0.015-0.024 0.029-0.037 0.045-0.012 0.013-0.024 0.028-0.037 0.042-0.012 0.013-0.024 0.028-0.036 0.041s-0.024 0.028-0.037 0.040c-0.013 0.013-0.024 0.026-0.037 0.040-0.012 0.013-0.024 0.025-0.036 0.038s-0.025 0.026-0.038 0.038c-0.012 0.013-0.024 0.024-0.036 0.036s-0.024 0.024-0.036 0.036c-0.013 0.012-0.026 0.022-0.038 0.034s-0.024 0.022-0.036 0.033c-0.012 0.012-0.024 0.022-0.037 0.033s-0.025 0.020-0.037 0.031c-0.012 0.010-0.024 0.020-0.036 0.031-0.012 0.010-0.025 0.019-0.038 0.030-0.012 0.010-0.024 0.019-0.036 0.029s-0.024 0.019-0.036 0.028-0.024 0.019-0.038 0.028c-0.012 0.009-0.024 0.018-0.036 0.027s-0.024 0.018-0.037 0.028c-0.012 0.008-0.024 0.016-0.037 0.026-0.012 0.008-0.024 0.016-0.036 0.024s-0.025 0.017-0.038 0.025c-0.012 0.008-0.024 0.015-0.036 0.024s-0.024 0.015-0.036 0.023c-0.013 0.008-0.025 0.015-0.038 0.023s-0.024 0.014-0.036 0.022l-0.037 0.022c-0.012 0.007-0.025 0.014-0.037 0.021s-0.024 0.013-0.036 0.020-0.025 0.014-0.037 0.020-0.025 0.013-0.037 0.019-0.024 0.013-0.036 0.019-0.024 0.013-0.038 0.018c-0.012 0.006-0.024 0.012-0.036 0.018s-0.024 0.012-0.037 0.017l-0.037 0.017-0.036 0.017c-0.013 0.005-0.025 0.012-0.037 0.016-0.013 0.006-0.025 0.011-0.037 0.016s-0.024 0.010-0.036 0.015c-0.013 0.004-0.025 0.010-0.038 0.015s-0.024 0.009-0.036 0.013-0.024 0.010-0.037 0.013l-0.037 0.013c-0.012 0.004-0.024 0.008-0.036 0.013s-0.024 0.009-0.037 0.013c-0.012 0.004-0.024 0.008-0.037 0.012l-0.036 0.013c-0.013 0.004-0.025 0.008-0.038 0.012l-0.036 0.010c-0.013 0.004-0.024 0.008-0.037 0.012s-0.025 0.006-0.037 0.010c-0.013 0.003-0.024 0.007-0.036 0.010l-0.037 0.009-0.037 0.010-0.036 0.009c-0.012 0.003-0.025 0.006-0.037 0.008-0.013 0.003-0.025 0.006-0.037 0.008l-0.036 0.008-0.038 0.007c-0.012 0.003-0.024 0.004-0.036 0.007s-0.024 0.004-0.037 0.006l-0.037 0.006-0.036 0.006-0.037 0.005c-0.013 0.002-0.025 0.003-0.037 0.005s-0.024 0.003-0.036 0.004c-0.013 0.001-0.025 0.003-0.038 0.004s-0.024 0.003-0.036 0.004c-0.012 0.001-0.024 0.003-0.037 0.003s-0.025 0.003-0.037 0.003c-0.012 0.001-0.024 0.001-0.036 0.003l-0.037 0.002c-0.013 0.001-0.025 0.002-0.037 0.003s-0.024 0.001-0.036 0.001l-0.037 0.001-0.037 0.002c-0.012 0-0.024 0-0.037 0l-0.037 0.001h-5.556v-7.747l6.017-0.002c0.013 0 0.024-0.001 0.038-0.001 0.012-0.001 0.024-0.001 0.036-0.001l0.037-0.003 0.037-0.001 0.036-0.003 0.074-0.006c0.013-0.001 0.024-0.002 0.036-0.004 0.013-0.001 0.025-0.003 0.038-0.004l0.036-0.004c0.012-0.002 0.024-0.003 0.037-0.006 0.012-0.001 0.025-0.003 0.037-0.005 0.012-0.001 0.024-0.004 0.036-0.005l0.037-0.007 0.037-0.006c0.012-0.002 0.024-0.004 0.036-0.007s0.024-0.005 0.037-0.008l0.037-0.008c0.012-0.003 0.024-0.005 0.036-0.008 0.013-0.003 0.025-0.006 0.038-0.010 0.012-0.003 0.024-0.006 0.036-0.010s0.025-0.006 0.037-0.010c0.013-0.003 0.025-0.007 0.037-0.011s0.024-0.007 0.036-0.011l0.037-0.012c0.013-0.004 0.025-0.008 0.037-0.012s0.024-0.008 0.036-0.013c0.013-0.005 0.024-0.009 0.038-0.013 0.012-0.004 0.024-0.010 0.036-0.014s0.024-0.010 0.037-0.014c0.012-0.005 0.024-0.010 0.037-0.015s0.024-0.011 0.036-0.015c0.013-0.005 0.025-0.012 0.037-0.016 0.013-0.006 0.025-0.012 0.037-0.017 0.013-0.006 0.024-0.012 0.036-0.018 0.013-0.006 0.025-0.012 0.038-0.019s0.024-0.013 0.036-0.019c0.012-0.007 0.025-0.013 0.037-0.020s0.025-0.013 0.037-0.021 0.024-0.014 0.036-0.022c0.013-0.008 0.025-0.015 0.037-0.024s0.025-0.015 0.037-0.024c0.012-0.008 0.024-0.016 0.036-0.026 0.013-0.008 0.024-0.017 0.038-0.026 0.012-0.009 0.024-0.019 0.036-0.028 0.012-0.010 0.024-0.020 0.036-0.029 0.013-0.011 0.026-0.020 0.038-0.031s0.024-0.021 0.036-0.032c0.013-0.012 0.025-0.022 0.037-0.034 0.013-0.013 0.025-0.024 0.037-0.036 0.013-0.013 0.024-0.026 0.036-0.039 0.013-0.013 0.026-0.027 0.038-0.040s0.024-0.028 0.036-0.042c0.012-0.015 0.025-0.031 0.036-0.046 0.013-0.016 0.026-0.033 0.038-0.049 0.012-0.017 0.024-0.036 0.036-0.054s0.026-0.038 0.037-0.058c0.013-0.022 0.025-0.043 0.037-0.065 0.012-0.024 0.025-0.048 0.036-0.072 0.013-0.028 0.026-0.054 0.038-0.083 0.013-0.032 0.024-0.065 0.036-0.098 0.013-0.041 0.025-0.083 0.036-0.125 0.017-0.063 0.029-0.126 0.038-0.191 0.010-0.079 0.015-0.161 0.015-0.245 0-0.081-0.006-0.161-0.015-0.237-0.010-0.063-0.021-0.125-0.038-0.184-0.011-0.041-0.022-0.081-0.036-0.12-0.012-0.033-0.024-0.064-0.036-0.095-0.012-0.028-0.024-0.054-0.038-0.080-0.012-0.024-0.024-0.046-0.036-0.070-0.012-0.021-0.024-0.041-0.037-0.063-0.012-0.019-0.024-0.038-0.037-0.056-0.012-0.017-0.024-0.035-0.036-0.052-0.012-0.015-0.024-0.032-0.038-0.047-0.012-0.015-0.024-0.030-0.036-0.044s-0.024-0.028-0.036-0.041c-0.012-0.013-0.024-0.026-0.038-0.040-0.012-0.013-0.024-0.024-0.036-0.036s-0.024-0.023-0.037-0.035c-0.012-0.012-0.024-0.023-0.037-0.033-0.012-0.011-0.024-0.021-0.036-0.031s-0.025-0.020-0.038-0.030c-0.012-0.010-0.024-0.019-0.036-0.029-0.013-0.009-0.024-0.017-0.036-0.026-0.013-0.009-0.025-0.017-0.038-0.026s-0.024-0.016-0.036-0.025c-0.012-0.008-0.024-0.015-0.037-0.022s-0.024-0.015-0.037-0.023c-0.012-0.008-0.024-0.014-0.036-0.022s-0.025-0.013-0.037-0.020-0.025-0.013-0.037-0.020-0.024-0.013-0.036-0.019-0.024-0.013-0.038-0.019c-0.012-0.005-0.024-0.012-0.036-0.017s-0.024-0.012-0.037-0.017c-0.012-0.005-0.024-0.010-0.037-0.015-0.012-0.005-0.024-0.011-0.036-0.016s-0.025-0.010-0.037-0.014c-0.013-0.005-0.025-0.010-0.037-0.014s-0.024-0.009-0.036-0.013c-0.013-0.004-0.025-0.008-0.038-0.013s-0.024-0.008-0.036-0.013c-0.012-0.004-0.024-0.008-0.037-0.012s-0.025-0.008-0.037-0.012l-0.036-0.010c-0.012-0.004-0.024-0.008-0.037-0.011s-0.024-0.007-0.037-0.010c-0.012-0.003-0.024-0.006-0.036-0.009-0.013-0.003-0.025-0.006-0.038-0.009-0.012-0.003-0.024-0.006-0.036-0.008s-0.024-0.005-0.037-0.008c-0.013-0.002-0.024-0.004-0.037-0.008l-0.036-0.007-0.037-0.007c-0.012-0.001-0.025-0.004-0.037-0.006l-0.036-0.005c-0.012-0.002-0.025-0.004-0.037-0.006l-0.037-0.004-0.036-0.004-0.038-0.004-0.036-0.004-0.037-0.003-0.037-0.004-0.033-0.002v-0.044l0.070-0.011c0.013-0.002 0.025-0.004 0.037-0.007l0.036-0.006c0.013-0.003 0.025-0.005 0.038-0.008l0.036-0.008c0.012-0.003 0.025-0.005 0.037-0.008s0.025-0.006 0.037-0.009c0.012-0.004 0.024-0.007 0.036-0.010 0.012-0.004 0.025-0.007 0.037-0.011s0.025-0.007 0.037-0.011 0.024-0.008 0.036-0.012c0.013-0.004 0.024-0.008 0.037-0.012s0.024-0.008 0.037-0.013c0.012-0.004 0.024-0.008 0.036-0.013 0.013-0.005 0.026-0.010 0.038-0.014s0.024-0.010 0.036-0.015c0.013-0.005 0.025-0.010 0.037-0.015 0.013-0.006 0.025-0.012 0.037-0.017s0.024-0.012 0.036-0.017c0.013-0.006 0.025-0.012 0.037-0.018s0.025-0.013 0.037-0.019c0.012-0.007 0.025-0.013 0.036-0.020 0.013-0.007 0.026-0.013 0.038-0.021 0.012-0.006 0.024-0.014 0.036-0.022s0.024-0.015 0.037-0.023c0.013-0.008 0.024-0.017 0.037-0.025s0.024-0.017 0.036-0.025c0.013-0.009 0.025-0.018 0.037-0.027 0.013-0.009 0.025-0.019 0.037-0.028 0.013-0.010 0.025-0.020 0.036-0.030 0.013-0.010 0.026-0.020 0.038-0.031s0.024-0.022 0.036-0.033 0.025-0.023 0.037-0.035 0.025-0.025 0.037-0.038 0.024-0.026 0.036-0.040 0.026-0.028 0.037-0.042c0.013-0.015 0.025-0.030 0.037-0.046s0.024-0.032 0.036-0.049c0.013-0.018 0.026-0.036 0.038-0.053 0.012-0.020 0.024-0.040 0.036-0.059 0.013-0.021 0.024-0.043 0.036-0.065 0.013-0.024 0.026-0.048 0.038-0.072 0.013-0.028 0.024-0.056 0.036-0.084 0.013-0.033 0.026-0.067 0.037-0.1 0.014-0.043 0.026-0.086 0.037-0.129 0.017-0.072 0.029-0.144 0.036-0.218 0.006-0.058 0.010-0.118 0.010-0.177 0-0.063-0.003-0.124-0.010-0.184-0.008-0.077-0.019-0.15-0.036-0.222-0.011-0.044-0.022-0.088-0.037-0.131-0.012-0.034-0.023-0.067-0.037-0.1-0.012-0.028-0.024-0.056-0.036-0.083-0.013-0.024-0.024-0.048-0.038-0.072-0.012-0.021-0.023-0.042-0.036-0.063-0.013-0.019-0.024-0.038-0.036-0.057-0.012-0.017-0.024-0.035-0.038-0.052-0.013-0.015-0.024-0.031-0.036-0.047-0.012-0.015-0.024-0.029-0.037-0.044-0.012-0.013-0.024-0.027-0.037-0.040s-0.024-0.026-0.036-0.038c-0.012-0.012-0.024-0.024-0.037-0.036-0.012-0.012-0.025-0.022-0.037-0.034s-0.024-0.022-0.036-0.031c-0.012-0.011-0.024-0.020-0.038-0.031-0.012-0.010-0.024-0.019-0.036-0.029-0.012-0.009-0.024-0.018-0.037-0.027-0.012-0.008-0.024-0.017-0.037-0.026-0.012-0.008-0.024-0.017-0.036-0.024s-0.025-0.016-0.037-0.024c-0.013-0.008-0.025-0.014-0.037-0.022s-0.024-0.014-0.036-0.021-0.025-0.013-0.038-0.020c-0.012-0.007-0.024-0.013-0.036-0.020-0.012-0.006-0.024-0.012-0.037-0.018s-0.024-0.012-0.037-0.018c-0.012-0.005-0.024-0.012-0.036-0.017s-0.024-0.010-0.037-0.015c-0.012-0.005-0.024-0.011-0.037-0.015-0.012-0.005-0.024-0.010-0.036-0.015-0.013-0.004-0.025-0.009-0.038-0.013-0.012-0.004-0.024-0.009-0.036-0.013s-0.024-0.008-0.037-0.013c-0.013-0.004-0.024-0.008-0.037-0.012s-0.024-0.008-0.036-0.012-0.024-0.008-0.037-0.010c-0.012-0.004-0.025-0.007-0.037-0.011s-0.024-0.007-0.036-0.010l-0.037-0.009c-0.013-0.003-0.025-0.006-0.037-0.009s-0.024-0.005-0.036-0.008l-0.038-0.008c-0.012-0.003-0.024-0.005-0.036-0.008s-0.024-0.004-0.037-0.006l-0.037-0.007c-0.012-0.001-0.024-0.004-0.036-0.006l-0.111-0.015-0.038-0.004-0.036-0.004-0.037-0.004-0.074-0.006-0.11-0.006-0.037-0.003-0.037-0.001-0.037-0.003-0.147-0.005-0.036-0.001h-5.463v-3.948c0-0.265 0.027-0.524 0.079-0.774 0.012-0.053 0.023-0.107 0.037-0.159 0.012-0.045 0.024-0.090 0.037-0.134 0.012-0.040 0.023-0.079 0.037-0.118 0.012-0.036 0.024-0.072 0.036-0.107 0.012-0.033 0.024-0.066 0.037-0.098 0.012-0.030 0.024-0.060 0.037-0.090 0.012-0.028 0.024-0.056 0.036-0.083s0.024-0.053 0.037-0.079c0.013-0.025 0.025-0.050 0.037-0.074s0.024-0.047 0.036-0.070c0.012-0.022 0.025-0.044 0.038-0.067 0.013-0.021 0.024-0.043 0.036-0.064 0.010-0.021 0.022-0.042 0.035-0.063 0.012-0.020 0.025-0.040 0.037-0.059s0.024-0.038 0.036-0.056c0.012-0.019 0.024-0.037 0.037-0.055s0.025-0.035 0.037-0.053c0.012-0.017 0.024-0.034 0.036-0.051 0.012-0.015 0.024-0.032 0.037-0.049s0.024-0.031 0.037-0.047c0.012-0.015 0.024-0.031 0.037-0.046 0.012-0.014 0.024-0.029 0.037-0.044 0.012-0.014 0.024-0.028 0.036-0.043s0.024-0.028 0.037-0.042c0.013-0.013 0.025-0.027 0.037-0.040s0.024-0.026 0.036-0.039 0.025-0.026 0.037-0.038 0.025-0.026 0.037-0.038 0.024-0.024 0.036-0.036 0.025-0.024 0.038-0.036c0.012-0.012 0.024-0.023 0.036-0.034s0.024-0.022 0.037-0.034c0.012-0.012 0.025-0.022 0.037-0.033s0.024-0.022 0.036-0.032c0.012-0.011 0.024-0.020 0.037-0.031s0.024-0.020 0.037-0.030c0.012-0.011 0.024-0.020 0.036-0.030l0.038-0.029 0.036-0.028c0.013-0.010 0.024-0.019 0.037-0.028s0.025-0.018 0.037-0.026l0.036-0.027c0.012-0.008 0.025-0.017 0.037-0.026l0.037-0.025 0.036-0.024c0.013-0.008 0.024-0.015 0.038-0.024l0.036-0.023c0.012-0.008 0.024-0.015 0.036-0.022s0.025-0.014 0.038-0.022c0.012-0.007 0.024-0.014 0.036-0.021s0.024-0.013 0.037-0.020c0.013-0.008 0.025-0.014 0.037-0.021 0.013-0.006 0.024-0.013 0.036-0.020 0.013-0.006 0.025-0.013 0.038-0.019 0.013-0.007 0.024-0.013 0.036-0.019s0.024-0.012 0.036-0.018l0.038-0.018c0.012-0.005 0.024-0.012 0.036-0.017s0.024-0.012 0.037-0.017c0.013-0.005 0.025-0.011 0.037-0.015s0.024-0.012 0.036-0.017c0.012-0.004 0.024-0.010 0.038-0.015 0.012-0.004 0.024-0.010 0.036-0.015l0.036-0.014 0.038-0.013c0.012-0.004 0.024-0.010 0.036-0.014s0.024-0.008 0.037-0.013c0.013-0.004 0.025-0.008 0.037-0.013s0.024-0.008 0.036-0.012l0.037-0.012c0.013-0.004 0.025-0.008 0.037-0.012s0.024-0.008 0.036-0.012c0.013-0.004 0.025-0.008 0.038-0.010 0.012-0.004 0.024-0.007 0.036-0.011s0.024-0.006 0.037-0.010l0.037-0.009c0.012-0.003 0.024-0.006 0.036-0.009s0.024-0.006 0.037-0.009 0.024-0.005 0.037-0.008l0.036-0.008 0.038-0.008c0.012-0.003 0.024-0.005 0.036-0.008s0.024-0.004 0.037-0.006c0.013-0.003 0.025-0.004 0.037-0.006l0.036-0.006c0.012-0.002 0.025-0.004 0.037-0.006 0.013-0.002 0.025-0.004 0.037-0.005s0.024-0.004 0.036-0.005c0.013-0.001 0.025-0.003 0.038-0.004l0.036-0.004c0.012-0.001 0.024-0.003 0.037-0.004 0.012-0.001 0.024-0.002 0.037-0.003l0.073-0.006c0.013-0.001 0.025-0.001 0.037-0.002s0.024-0.001 0.036-0.002c0.013-0.001 0.025-0.001 0.038-0.001l0.036-0.001c0.012-0.001 0.024-0.001 0.036-0.001s0.026 0 0.038 0 0.024-0.001 0.036-0.001l5.553-0.002z"></path>
<path fill="#2b73a0" d="M10.482 17.823c-0.027-0.013-0.052-0.025-0.079-0.038v-9.383c0-0.264 0.027-0.523 0.079-0.772 0.011-0.054 0.023-0.107 0.036-0.16 0.012-0.045 0.024-0.090 0.037-0.134 0.012-0.039 0.024-0.079 0.036-0.118 0.012-0.035 0.024-0.070 0.036-0.106 0.012-0.033 0.024-0.065 0.036-0.097 0.012-0.030 0.024-0.060 0.036-0.090 0.012-0.028 0.024-0.056 0.036-0.083 0.012-0.026 0.024-0.053 0.036-0.079s0.024-0.050 0.037-0.074c0.012-0.024 0.024-0.047 0.036-0.070 0.012-0.022 0.024-0.045 0.036-0.067s0.024-0.043 0.037-0.064c0.012-0.021 0.024-0.042 0.036-0.061s0.025-0.039 0.036-0.059c0.012-0.019 0.024-0.038 0.037-0.056s0.024-0.036 0.036-0.054 0.024-0.035 0.036-0.052 0.024-0.034 0.037-0.051c0.012-0.017 0.024-0.032 0.036-0.049s0.024-0.033 0.036-0.047c0.012-0.016 0.024-0.031 0.036-0.046s0.024-0.029 0.036-0.044c0.012-0.014 0.024-0.028 0.036-0.044 0.012-0.013 0.024-0.027 0.037-0.042s0.024-0.028 0.036-0.041 0.024-0.026 0.036-0.039 0.024-0.026 0.036-0.038c0.013-0.013 0.024-0.026 0.037-0.038s0.024-0.025 0.036-0.036 0.024-0.024 0.036-0.035 0.025-0.022 0.037-0.034 0.024-0.024 0.036-0.034 0.024-0.022 0.036-0.033c0.012-0.011 0.024-0.021 0.037-0.031 0.012-0.011 0.024-0.021 0.036-0.031s0.025-0.020 0.036-0.031c0.012-0.010 0.024-0.020 0.037-0.029s0.024-0.020 0.036-0.029c0.012-0.010 0.024-0.019 0.036-0.028s0.024-0.018 0.037-0.027l0.036-0.027c0.012-0.009 0.024-0.018 0.036-0.026 0.012-0.009 0.024-0.017 0.036-0.026s0.024-0.017 0.037-0.025c0.012-0.008 0.024-0.015 0.036-0.024s0.024-0.016 0.036-0.024c0.013-0.008 0.025-0.015 0.037-0.022s0.024-0.015 0.036-0.022c0.012-0.008 0.024-0.015 0.036-0.022s0.024-0.015 0.037-0.022c0.012-0.007 0.024-0.013 0.036-0.020s0.024-0.013 0.036-0.020c0.013-0.007 0.025-0.013 0.037-0.019s0.024-0.013 0.036-0.020c0.012-0.006 0.024-0.012 0.036-0.018l0.037-0.019c0.012-0.006 0.024-0.012 0.036-0.017s0.024-0.012 0.036-0.018c0.013-0.005 0.025-0.012 0.036-0.017s0.024-0.010 0.037-0.016c0.012-0.005 0.024-0.010 0.036-0.015s0.024-0.011 0.036-0.015l0.037-0.015 0.036-0.015 0.036-0.013c0.013-0.004 0.024-0.009 0.037-0.013 0.012-0.005 0.024-0.010 0.036-0.014s0.024-0.008 0.036-0.013l0.037-0.012 0.036-0.012c0.012-0.004 0.024-0.008 0.036-0.011s0.024-0.008 0.037-0.012c0.012-0.004 0.024-0.008 0.036-0.011s0.024-0.006 0.036-0.010l0.037-0.010c0.012-0.003 0.024-0.006 0.036-0.010s0.025-0.006 0.036-0.009c0.012-0.003 0.024-0.006 0.036-0.008 0.013-0.003 0.024-0.006 0.037-0.008l0.036-0.008c0.012-0.003 0.024-0.006 0.036-0.008 0.013-0.002 0.025-0.004 0.037-0.007s0.024-0.005 0.036-0.007c0.012-0.002 0.024-0.004 0.036-0.006l0.037-0.006c0.012-0.002 0.024-0.004 0.036-0.006 0.012-0.003 0.024-0.004 0.036-0.006s0.025-0.004 0.037-0.005l0.036-0.004 0.036-0.004c0.013-0.001 0.024-0.003 0.037-0.004 0.012-0.001 0.024-0.003 0.036-0.003l0.036-0.004c0.013-0.001 0.025-0.001 0.036-0.002 0.013-0.001 0.024-0.003 0.037-0.003s0.024-0.001 0.036-0.002c0.012 0 0.024-0.001 0.036-0.001l0.037-0.001c0.012 0 0.024-0.001 0.036-0.001s0.025 0 0.036 0c0.013 0 0.024-0.001 0.037-0.001h5.601v18.996c0 0.166-0.011 0.328-0.031 0.488-0.010 0.077-0.022 0.154-0.036 0.228-0.011 0.058-0.024 0.115-0.037 0.171-0.012 0.047-0.024 0.094-0.036 0.142-0.012 0.040-0.024 0.081-0.036 0.122-0.012 0.037-0.024 0.072-0.036 0.109-0.012 0.034-0.024 0.067-0.037 0.1-0.012 0.031-0.024 0.062-0.036 0.092-0.012 0.029-0.024 0.058-0.036 0.086s-0.024 0.054-0.037 0.080c-0.012 0.026-0.024 0.051-0.036 0.076-0.012 0.023-0.024 0.047-0.036 0.071-0.012 0.022-0.024 0.045-0.037 0.067s-0.024 0.044-0.036 0.066c-0.012 0.020-0.024 0.041-0.036 0.062-0.012 0.020-0.024 0.040-0.037 0.060-0.012 0.019-0.024 0.038-0.036 0.057s-0.024 0.037-0.036 0.055-0.024 0.036-0.037 0.052c-0.012 0.017-0.024 0.035-0.036 0.051s-0.024 0.033-0.036 0.050c-0.012 0.016-0.024 0.032-0.037 0.048-0.012 0.015-0.024 0.031-0.036 0.045s-0.024 0.030-0.036 0.045c-0.012 0.014-0.024 0.029-0.036 0.044-0.013 0.013-0.025 0.028-0.037 0.042s-0.024 0.027-0.036 0.040-0.024 0.027-0.036 0.040-0.024 0.027-0.037 0.040c-0.012 0.013-0.024 0.025-0.036 0.038s-0.024 0.024-0.036 0.037c-0.013 0.012-0.025 0.023-0.037 0.036-0.012 0.012-0.024 0.023-0.036 0.035s-0.024 0.022-0.036 0.034c-0.012 0.012-0.024 0.022-0.037 0.033s-0.024 0.022-0.036 0.033-0.025 0.020-0.036 0.031c-0.013 0.011-0.025 0.021-0.036 0.031-0.013 0.010-0.024 0.019-0.037 0.029s-0.024 0.020-0.036 0.029-0.024 0.019-0.036 0.028-0.024 0.018-0.036 0.028c-0.012 0.009-0.025 0.017-0.036 0.026s-0.024 0.018-0.036 0.026c-0.012 0.010-0.024 0.017-0.037 0.026s-0.024 0.017-0.036 0.026c-0.012 0.008-0.024 0.015-0.036 0.024-0.013 0.008-0.025 0.015-0.037 0.024s-0.025 0.015-0.036 0.022c-0.012 0.008-0.024 0.015-0.036 0.022s-0.024 0.015-0.037 0.022c-0.012 0.008-0.024 0.015-0.036 0.022s-0.024 0.014-0.036 0.021c-0.013 0.007-0.025 0.013-0.036 0.020-0.013 0.007-0.024 0.013-0.037 0.020l-0.036 0.019c-0.013 0.007-0.024 0.013-0.036 0.019s-0.024 0.012-0.037 0.018c-0.012 0.006-0.024 0.013-0.036 0.018s-0.025 0.012-0.036 0.017c-0.013 0.006-0.024 0.013-0.037 0.017-0.012 0.006-0.024 0.011-0.036 0.015l-0.036 0.017-0.037 0.015c-0.012 0.004-0.024 0.010-0.036 0.014-0.012 0.005-0.025 0.011-0.036 0.015-0.013 0.004-0.024 0.010-0.037 0.014s-0.024 0.009-0.036 0.013-0.024 0.009-0.036 0.013l-0.036 0.013-0.037 0.012c-0.012 0.004-0.025 0.008-0.036 0.012-0.013 0.004-0.024 0.009-0.036 0.013s-0.024 0.008-0.037 0.012l-0.036 0.010-0.036 0.011c-0.013 0.003-0.025 0.007-0.037 0.010s-0.024 0.007-0.036 0.010c-0.012 0.003-0.024 0.006-0.036 0.009s-0.024 0.006-0.037 0.009l-0.036 0.009-0.036 0.008c-0.013 0.003-0.025 0.005-0.037 0.008s-0.024 0.004-0.036 0.008c-0.012 0.003-0.024 0.004-0.036 0.007l-0.037 0.007c-0.012 0.002-0.024 0.004-0.036 0.006s-0.024 0.004-0.036 0.006c-0.012 0.001-0.025 0.003-0.036 0.005l-0.037 0.006c-0.012 0.001-0.024 0.003-0.036 0.004s-0.024 0.003-0.036 0.004c-0.012 0.002-0.024 0.003-0.037 0.004s-0.024 0.003-0.036 0.004l-0.036 0.003c-0.013 0.002-0.024 0.003-0.037 0.004s-0.024 0.001-0.036 0.003l-0.036-0.002-0.037 0.002c-0.012 0.001-0.024 0.001-0.036 0.001s-0.025 0.001-0.036 0.002c-0.013 0-0.024 0.001-0.037 0.001h-0.036c-0.010 0.001-0.022 0.001-0.033 0.001h-5.572v-8.007c0 0 0.027 0.008 0.079 0.020l0.036 0.010 0.037 0.009 0.073 0.018 0.037 0.008 0.036 0.008 0.036 0.009 0.036 0.008 0.037 0.008 0.036 0.008 0.036 0.008 0.037 0.008 0.035 0.005 0.036 0.008 0.037 0.008 0.036 0.008 0.036 0.006 0.037 0.008 0.036 0.006 0.036 0.007 0.037 0.007 0.036 0.006 0.036 0.007 0.037 0.007 0.073 0.013 0.036 0.007 0.037 0.006 0.073 0.013 0.037 0.006 0.073 0.013 0.037 0.006 0.11 0.017 0.036 0.005 0.036 0.006 0.037 0.005 0.036 0.005 0.036 0.006 0.036 0.005 0.037 0.004 0.036 0.006 0.036 0.004 0.037 0.004 0.036 0.006 0.036 0.004 0.037 0.004 0.036 0.004 0.036 0.004 0.037 0.005 0.036 0.004 0.036 0.004 0.074 0.008 0.036 0.004 0.074 0.008 0.036 0.003 0.074 0.008 0.036 0.003 0.036 0.004 0.074 0.006 0.036 0.003 0.11 0.010 0.037 0.002 0.036 0.003 0.036 0.003 0.037 0.003 0.036 0.002 0.036 0.003 0.036 0.002 0.074 0.005 0.036 0.001 0.037 0.003 0.073 0.004 0.037 0.001 0.036 0.002 0.074 0.003 0.036 0.002 0.036 0.001 0.037 0.001 0.036 0.002 0.11 0.002 0.036 0.002h0.036l0.074 0.001h0.036l0.037 0.001h0.073l0.037 0.001h0.013l0.022-0.001h0.104l0.036-0.001h0.036l0.11-0.002 0.074-0.003 0.036-0.001 0.037-0.002 0.036-0.001 0.073-0.004 0.037-0.001 0.073-0.004 0.037-0.003 0.036-0.001 0.036-0.003 0.036-0.003 0.036-0.002 0.036-0.003 0.037-0.003 0.036-0.003 0.036-0.003 0.037-0.003 0.036-0.004 0.036-0.003 0.147-0.015 0.037-0.004 0.036-0.005 0.035-0.009 0.037-0.005 0.036-0.004 0.036-0.006 0.037-0.005c0.012-0.001 0.024-0.003 0.036-0.005l0.036-0.006 0.037-0.006 0.036-0.005c0.013-0.003 0.025-0.004 0.036-0.006l0.036-0.006c0.013-0.003 0.025-0.004 0.037-0.007s0.024-0.004 0.036-0.007l0.036-0.007 0.037-0.007 0.036-0.008c0.013-0.002 0.024-0.004 0.036-0.008l0.037-0.008 0.036-0.008c0.012-0.002 0.024-0.005 0.036-0.008l0.037-0.008c0.012-0.003 0.025-0.006 0.036-0.008 0.013-0.003 0.024-0.006 0.036-0.009l0.037-0.009c0.012-0.003 0.024-0.006 0.036-0.010s0.024-0.006 0.036-0.010l0.036-0.010c0.013-0.004 0.025-0.007 0.037-0.010 0.013-0.004 0.024-0.007 0.036-0.011l0.036-0.011c0.012-0.004 0.025-0.007 0.037-0.011l0.073-0.023c0.013-0.004 0.025-0.008 0.037-0.012l0.036-0.013 0.036-0.012c0.012-0.004 0.025-0.008 0.037-0.013s0.024-0.010 0.036-0.013l0.036-0.013c0.013-0.004 0.024-0.009 0.037-0.013 0.012-0.006 0.024-0.010 0.036-0.014 0.012-0.005 0.024-0.010 0.036-0.014l0.037-0.015 0.036-0.015c0.012-0.005 0.025-0.010 0.036-0.015 0.013-0.006 0.024-0.012 0.036-0.017l0.037-0.016 0.036-0.017c0.012-0.006 0.024-0.012 0.036-0.018s0.025-0.012 0.037-0.017c0.013-0.007 0.025-0.013 0.036-0.019 0.013-0.007 0.024-0.013 0.036-0.019s0.024-0.013 0.037-0.020c0.012-0.006 0.024-0.013 0.036-0.019 0.012-0.007 0.024-0.014 0.036-0.021s0.025-0.014 0.037-0.021c0.012-0.008 0.025-0.015 0.036-0.022 0.013-0.008 0.024-0.015 0.036-0.022s0.025-0.015 0.037-0.023c0.012-0.009 0.024-0.017 0.036-0.024s0.024-0.016 0.036-0.025c0.013-0.009 0.025-0.017 0.036-0.026 0.013-0.008 0.025-0.017 0.037-0.026s0.024-0.018 0.036-0.028 0.024-0.019 0.036-0.028 0.025-0.019 0.037-0.030c0.012-0.010 0.024-0.020 0.036-0.030 0.013-0.011 0.025-0.021 0.036-0.032 0.013-0.012 0.024-0.022 0.037-0.033s0.024-0.022 0.036-0.034c0.012-0.012 0.024-0.024 0.036-0.036s0.025-0.024 0.036-0.037c0.012-0.013 0.025-0.026 0.036-0.038 0.013-0.013 0.024-0.027 0.036-0.040s0.025-0.028 0.037-0.042c0.012-0.015 0.024-0.029 0.036-0.044s0.024-0.031 0.036-0.047 0.025-0.033 0.036-0.049 0.025-0.035 0.037-0.052c0.013-0.018 0.024-0.037 0.036-0.055 0.013-0.020 0.025-0.040 0.036-0.059 0.013-0.020 0.025-0.041 0.037-0.063s0.025-0.045 0.036-0.067c0.013-0.024 0.025-0.049 0.036-0.073 0.013-0.027 0.025-0.053 0.037-0.080 0.013-0.028 0.025-0.058 0.036-0.088 0.013-0.033 0.026-0.065 0.036-0.099 0.013-0.038 0.025-0.075 0.037-0.113 0.013-0.045 0.025-0.091 0.036-0.136 0.014-0.056 0.026-0.113 0.036-0.172 0.016-0.086 0.028-0.173 0.036-0.262 0.013-0.124 0.019-0.25 0.019-0.378v-4.408h-3.274v4.408c0 0.069-0.003 0.137-0.008 0.204-0.008 0.089-0.020 0.172-0.036 0.253-0.010 0.049-0.023 0.098-0.036 0.146-0.011 0.038-0.024 0.076-0.036 0.113-0.012 0.031-0.024 0.063-0.037 0.093-0.012 0.027-0.024 0.054-0.036 0.080-0.012 0.024-0.024 0.047-0.036 0.071-0.012 0.021-0.024 0.042-0.037 0.063s-0.024 0.040-0.036 0.059c-0.012 0.019-0.024 0.036-0.036 0.052s-0.024 0.034-0.036 0.049c-0.012 0.015-0.024 0.031-0.037 0.045s-0.024 0.029-0.036 0.042c-0.012 0.013-0.024 0.028-0.036 0.040s-0.024 0.025-0.037 0.038c-0.012 0.012-0.024 0.024-0.036 0.035-0.012 0.010-0.024 0.022-0.036 0.033s-0.024 0.021-0.036 0.031-0.024 0.019-0.036 0.029c-0.012 0.007-0.024 0.017-0.036 0.026s-0.024 0.017-0.037 0.026c-0.012 0.009-0.024 0.017-0.036 0.025s-0.024 0.015-0.036 0.023-0.025 0.015-0.037 0.022-0.024 0.014-0.036 0.021-0.024 0.013-0.036 0.019c-0.012 0.007-0.024 0.013-0.036 0.019-0.012 0.006-0.024 0.013-0.037 0.018s-0.024 0.012-0.036 0.017-0.025 0.012-0.036 0.016-0.024 0.010-0.037 0.014c-0.012 0.006-0.024 0.010-0.036 0.014s-0.024 0.009-0.036 0.013-0.024 0.008-0.037 0.013-0.024 0.008-0.036 0.012-0.025 0.008-0.036 0.011c-0.012 0.004-0.024 0.008-0.037 0.011-0.010 0.004-0.022 0.008-0.035 0.011s-0.024 0.007-0.036 0.009c-0.012 0.003-0.024 0.006-0.036 0.010-0.013 0.002-0.025 0.005-0.037 0.008s-0.024 0.005-0.036 0.008c-0.012 0.002-0.024 0.004-0.036 0.007s-0.024 0.004-0.037 0.006l-0.036 0.006c-0.012 0.001-0.024 0.003-0.036 0.004s-0.025 0.003-0.037 0.004l-0.036 0.004c-0.012 0.001-0.024 0.003-0.036 0.003-0.013 0.002-0.024 0.003-0.037 0.004s-0.024 0.002-0.036 0.003-0.024 0.001-0.036 0.003-0.025 0.001-0.036 0.001c-0.013 0.001-0.024 0.001-0.037 0.001l-0.036 0.001c-0.012 0-0.024 0-0.036 0h-0.072l-0.036-0.003-0.074-0.001-0.036-0.001-0.037-0.002-0.036-0.001-0.074-0.004-0.036-0.003-0.073-0.006-0.037-0.002-0.036-0.003-0.11-0.012-0.036-0.004-0.037-0.004-0.036-0.005-0.036-0.004-0.037-0.006-0.036-0.004-0.036-0.005-0.037-0.006-0.036-0.006-0.036-0.006-0.037-0.006-0.073-0.014-0.036-0.006-0.037-0.008-0.036-0.008-0.036-0.008-0.037-0.008-0.073-0.017-0.036-0.006-0.036-0.010-0.036-0.009-0.037-0.010-0.036-0.008-0.036-0.010-0.037-0.009-0.109-0.031-0.037-0.010-0.036-0.010-0.036-0.012-0.037-0.012-0.036-0.011-0.036-0.011-0.037-0.012-0.036-0.013-0.036-0.012-0.037-0.012-0.036-0.012-0.036-0.013-0.037-0.013-0.036-0.013-0.036-0.013-0.036-0.013-0.037-0.013-0.073-0.027-0.036-0.012-0.073-0.027-0.036-0.016-0.036-0.014-0.036-0.015-0.037-0.015-0.036-0.015-0.036-0.015-0.037-0.015-0.036-0.017-0.036-0.016-0.037-0.016-0.036-0.015-0.036-0.017-0.036-0.017-0.037-0.016-0.073-0.033-0.037-0.017-0.036-0.018z"></path>
<path fill="#ed5665" d="M20.993 13.311c-0.027 0.022-0.052 0.044-0.079 0.066v-4.975c0-0.264 0.027-0.522 0.079-0.772 0.012-0.053 0.024-0.106 0.037-0.159 0.012-0.046 0.024-0.090 0.036-0.134 0.012-0.040 0.024-0.079 0.036-0.118 0.012-0.036 0.024-0.072 0.037-0.107 0.012-0.033 0.024-0.066 0.036-0.097s0.024-0.060 0.036-0.090c0.012-0.028 0.024-0.056 0.037-0.083 0.012-0.026 0.024-0.052 0.036-0.079 0.012-0.025 0.024-0.049 0.036-0.074 0.012-0.023 0.024-0.047 0.037-0.070 0.012-0.022 0.024-0.044 0.036-0.067 0.012-0.021 0.024-0.043 0.036-0.064s0.024-0.040 0.037-0.061c0.012-0.020 0.024-0.039 0.036-0.058 0.012-0.020 0.024-0.038 0.036-0.056s0.024-0.037 0.036-0.055c0.013-0.017 0.025-0.035 0.037-0.052s0.024-0.033 0.036-0.051c0.012-0.015 0.024-0.032 0.036-0.048s0.024-0.032 0.037-0.048c0.012-0.015 0.024-0.030 0.036-0.045s0.024-0.030 0.036-0.045c0.013-0.014 0.025-0.028 0.037-0.043s0.024-0.028 0.036-0.041c0.012-0.013 0.024-0.028 0.036-0.042 0.012-0.013 0.024-0.026 0.037-0.039s0.024-0.026 0.036-0.038 0.024-0.025 0.036-0.038 0.025-0.024 0.037-0.036 0.024-0.024 0.036-0.036 0.024-0.022 0.036-0.034c0.013-0.012 0.024-0.022 0.037-0.034s0.024-0.022 0.036-0.032c0.012-0.011 0.024-0.022 0.036-0.033s0.025-0.020 0.036-0.031c0.013-0.010 0.024-0.020 0.037-0.030s0.024-0.020 0.036-0.029c0.012-0.010 0.024-0.019 0.036-0.029 0.012-0.009 0.024-0.019 0.037-0.028s0.024-0.019 0.036-0.028 0.025-0.017 0.036-0.026c0.013-0.009 0.024-0.017 0.037-0.026s0.024-0.017 0.036-0.026c0.012-0.008 0.024-0.017 0.036-0.025s0.024-0.015 0.037-0.024c0.012-0.008 0.024-0.015 0.036-0.023s0.025-0.016 0.036-0.024c0.013-0.008 0.024-0.015 0.036-0.022s0.024-0.014 0.037-0.022c0.008-0.009 0.020-0.017 0.033-0.023 0.012-0.008 0.024-0.013 0.036-0.021 0.013-0.006 0.025-0.013 0.037-0.020 0.012-0.006 0.025-0.013 0.036-0.019s0.024-0.013 0.036-0.019l0.037-0.019 0.036-0.018c0.012-0.006 0.024-0.012 0.036-0.018s0.025-0.012 0.037-0.017c0.012-0.005 0.024-0.012 0.036-0.017s0.024-0.010 0.036-0.017c0.012-0.005 0.024-0.010 0.037-0.015s0.024-0.010 0.036-0.015l0.036-0.015c0.013-0.005 0.024-0.010 0.037-0.014 0.012-0.005 0.024-0.010 0.036-0.014s0.025-0.009 0.037-0.013 0.024-0.009 0.037-0.013c0.012-0.004 0.024-0.009 0.036-0.013s0.024-0.008 0.037-0.012l0.036-0.012c0.013-0.004 0.024-0.008 0.037-0.012s0.024-0.008 0.036-0.012c0.013-0.004 0.024-0.006 0.037-0.011s0.024-0.006 0.037-0.010l0.036-0.010c0.013-0.003 0.024-0.006 0.036-0.010 0.013-0.003 0.025-0.006 0.037-0.008s0.024-0.007 0.037-0.009c0.012-0.003 0.024-0.006 0.036-0.008l0.037-0.008c0.012-0.002 0.024-0.005 0.037-0.008s0.024-0.004 0.036-0.007c0.013-0.002 0.024-0.005 0.037-0.008l0.036-0.006 0.037-0.006c0.013-0.002 0.024-0.004 0.037-0.006s0.024-0.004 0.036-0.005c0.012-0.001 0.024-0.004 0.036-0.005l0.037-0.004 0.037-0.004c0.012-0.001 0.024-0.003 0.036-0.004s0.024-0.003 0.037-0.003l0.037-0.003c0.012-0.001 0.024-0.002 0.036-0.003s0.024-0.001 0.036-0.003c0.013-0.001 0.024-0.001 0.037-0.002s0.024-0.001 0.037-0.001l0.036-0.001c0.013 0 0.024-0.001 0.037-0.001s0.024 0 0.036 0c0.013 0 0.025-0.001 0.037-0.001h5.59v18.996c0 0.166-0.011 0.328-0.031 0.488-0.010 0.077-0.023 0.153-0.036 0.228-0.012 0.058-0.023 0.115-0.037 0.171-0.012 0.048-0.023 0.095-0.037 0.143-0.012 0.040-0.024 0.081-0.036 0.122-0.012 0.037-0.024 0.072-0.037 0.109-0.012 0.034-0.024 0.067-0.037 0.1-0.012 0.031-0.024 0.061-0.036 0.092-0.012 0.029-0.024 0.058-0.037 0.086-0.012 0.027-0.024 0.054-0.037 0.080-0.012 0.026-0.024 0.051-0.036 0.075s-0.024 0.048-0.037 0.072c-0.013 0.022-0.024 0.045-0.037 0.067s-0.024 0.044-0.036 0.066c-0.012 0.020-0.024 0.041-0.037 0.062-0.012 0.019-0.024 0.040-0.037 0.060-0.012 0.019-0.024 0.038-0.036 0.057s-0.024 0.037-0.037 0.055c-0.012 0.018-0.025 0.036-0.037 0.052s-0.024 0.035-0.036 0.051c-0.012 0.017-0.024 0.033-0.037 0.050-0.012 0.015-0.024 0.031-0.037 0.047-0.012 0.015-0.024 0.031-0.036 0.046s-0.024 0.030-0.037 0.045c-0.013 0.014-0.025 0.029-0.037 0.043s-0.024 0.029-0.036 0.042c-0.012 0.014-0.024 0.028-0.037 0.042s-0.024 0.026-0.037 0.040c-0.012 0.013-0.024 0.026-0.036 0.040-0.012 0.012-0.024 0.025-0.037 0.037-0.012 0.013-0.024 0.025-0.037 0.037-0.012 0.012-0.024 0.024-0.036 0.036-0.012 0.012-0.024 0.022-0.037 0.035-0.012 0.012-0.024 0.022-0.037 0.034-0.012 0.012-0.024 0.022-0.036 0.033s-0.024 0.022-0.037 0.033-0.025 0.020-0.037 0.031c-0.013 0.011-0.024 0.020-0.036 0.031-0.012 0.010-0.024 0.019-0.037 0.029s-0.024 0.019-0.037 0.029c-0.012 0.010-0.024 0.019-0.036 0.028-0.012 0.010-0.024 0.019-0.037 0.028-0.012 0.009-0.024 0.018-0.037 0.027-0.012 0.009-0.024 0.018-0.036 0.026s-0.024 0.017-0.036 0.026c-0.013 0.008-0.025 0.017-0.038 0.025-0.012 0.008-0.024 0.016-0.036 0.024-0.013 0.009-0.024 0.017-0.037 0.024s-0.025 0.015-0.037 0.023c-0.013 0.008-0.024 0.015-0.036 0.022s-0.024 0.015-0.036 0.022c-0.013 0.008-0.025 0.015-0.038 0.022s-0.024 0.013-0.036 0.021l-0.074 0.040-0.036 0.019c-0.012 0.006-0.024 0.013-0.036 0.019-0.013 0.006-0.025 0.012-0.038 0.018-0.012 0.006-0.024 0.013-0.036 0.018s-0.024 0.012-0.037 0.017c-0.013 0.006-0.024 0.013-0.036 0.017-0.013 0.006-0.025 0.011-0.037 0.015l-0.036 0.017-0.038 0.015-0.036 0.015c-0.012 0.005-0.024 0.011-0.036 0.015s-0.024 0.010-0.037 0.013c-0.013 0.005-0.024 0.010-0.037 0.014s-0.024 0.009-0.036 0.013l-0.038 0.013-0.036 0.012c-0.013 0.004-0.024 0.008-0.036 0.012-0.013 0.004-0.025 0.009-0.037 0.013-0.013 0.004-0.025 0.006-0.037 0.012l-0.036 0.010-0.037 0.011c-0.013 0.003-0.025 0.007-0.037 0.010s-0.024 0.007-0.036 0.010c-0.012 0.003-0.024 0.006-0.037 0.009s-0.024 0.006-0.037 0.009l-0.036 0.009-0.037 0.008c-0.013 0.003-0.025 0.005-0.037 0.008s-0.024 0.004-0.036 0.008l-0.074 0.014c-0.012 0.001-0.024 0.004-0.036 0.006s-0.025 0.004-0.037 0.006c-0.012 0.001-0.025 0.003-0.037 0.005l-0.036 0.006c-0.012 0.001-0.024 0.003-0.037 0.004-0.012 0.001-0.024 0.003-0.037 0.004s-0.024 0.003-0.036 0.004c-0.013 0.002-0.025 0.003-0.037 0.004l-0.037 0.003c-0.013 0.002-0.024 0.003-0.036 0.004s-0.024 0.001-0.037 0.003l-0.018-0.002-0.036 0.002c-0.012 0.001-0.025 0.001-0.037 0.001s-0.024 0.001-0.037 0.002c-0.012 0-0.024 0.001-0.036 0.001h-0.036c-0.012 0.001-0.023 0.001-0.035 0.001h-5.572v-8.772c0.026 0.021 0.052 0.043 0.079 0.065 0.013 0.010 0.024 0.020 0.037 0.029s0.024 0.019 0.036 0.029c0.012 0.009 0.024 0.018 0.036 0.028s0.024 0.018 0.037 0.027c0.012 0.009 0.024 0.017 0.036 0.026s0.025 0.017 0.036 0.026l0.037 0.025c0.012 0.008 0.024 0.016 0.036 0.024l0.036 0.024c0.012 0.008 0.024 0.015 0.037 0.023s0.024 0.015 0.036 0.022l0.036 0.022c0.013 0.008 0.024 0.014 0.037 0.022s0.024 0.014 0.036 0.021l0.073 0.041 0.037 0.019c0.012 0.007 0.024 0.013 0.036 0.020s0.024 0.013 0.036 0.019l0.037 0.019 0.036 0.018 0.036 0.017c0.013 0.006 0.025 0.013 0.037 0.018l0.036 0.017 0.036 0.016 0.037 0.017 0.073 0.031 0.037 0.015 0.073 0.029 0.037 0.014 0.036 0.013c0.012 0.004 0.024 0.010 0.036 0.014l0.036 0.013c0.013 0.005 0.024 0.010 0.037 0.013s0.024 0.008 0.036 0.013l0.036 0.013 0.037 0.012c0.012 0.004 0.024 0.008 0.036 0.013 0.012 0.004 0.025 0.008 0.036 0.012l0.037 0.012 0.073 0.023 0.037 0.011 0.073 0.022 0.036 0.010 0.037 0.010 0.036 0.010 0.036 0.010 0.037 0.010 0.036 0.009 0.036 0.010 0.037 0.009 0.036 0.008 0.036 0.009 0.037 0.008 0.036 0.008 0.036 0.008 0.037 0.008 0.073 0.015 0.037 0.007 0.036 0.007 0.074 0.014 0.036 0.006 0.037 0.006 0.036 0.006 0.037 0.006 0.036 0.006 0.037 0.005 0.037 0.006 0.036 0.005 0.036 0.006 0.111 0.015 0.074 0.009 0.036 0.005 0.037 0.004 0.036 0.004 0.184 0.019 0.037 0.003 0.036 0.004 0.037 0.003 0.037 0.003 0.036 0.003 0.036 0.003 0.037 0.003 0.037 0.002 0.036 0.003 0.037 0.003 0.024-0.004 0.074 0.004 0.036 0.003 0.037 0.001 0.037 0.002 0.036 0.001 0.036 0.002 0.074 0.003 0.036 0.002 0.111 0.002 0.036 0.002 0.037 0.001h0.037l0.074 0.001h0.036l0.037 0.001h0.147l0.037-0.001h0.074l0.037-0.001h0.036l0.111-0.002 0.036-0.001 0.037-0.001 0.036-0.001 0.037-0.001 0.037-0.002 0.036-0.001 0.037-0.001 0.037-0.002 0.036-0.001 0.037-0.002 0.073-0.003 0.148-0.008 0.037-0.003 0.036-0.003 0.11-0.008 0.074-0.006 0.036-0.003 0.037-0.003 0.037-0.004 0.036-0.003 0.074-0.008 0.036-0.004 0.074-0.008 0.036-0.004 0.037-0.004 0.037-0.005 0.036-0.004 0.111-0.013 0.037-0.006 0.037-0.004 0.036-0.004 0.037-0.006 0.037-0.005 0.036-0.004 0.037-0.006 0.037-0.005 0.036-0.006 0.074-0.012 0.036-0.005 0.036-0.006 0.038-0.006 0.036-0.006 0.037-0.006 0.037-0.006 0.036-0.006 0.036-0.006 0.038-0.007 0.036-0.006 0.037-0.006 0.036-0.007 0.037-0.006 0.036-0.007 0.038-0.006 0.036-0.007 0.036-0.007 0.111-0.021 0.038-0.008 0.036-0.006 0.036-0.008 0.037-0.008 0.037-0.006 0.036-0.008 0.038-0.008 0.036-0.008 0.036-0.008 0.037-0.008 0.037-0.008 0.036-0.008 0.037-0.008 0.037-0.008 0.036-0.009 0.037-0.008 0.037-0.008 0.036-0.009 0.037-0.009 0.037-0.008 0.036-0.009 0.037-0.010 0.037-0.009v-1.607l-0.037 0.017-0.037 0.019-0.036 0.017-0.037 0.019-0.037 0.017-0.11 0.051-0.036 0.016-0.037 0.017-0.037 0.016-0.036 0.016-0.074 0.032-0.036 0.015-0.036 0.015-0.038 0.015-0.036 0.015-0.074 0.029-0.061 0.031-0.036 0.013-0.038 0.014-0.036 0.014-0.074 0.027-0.036 0.013-0.035 0.014-0.038 0.013-0.036 0.013-0.037 0.013-0.036 0.012-0.037 0.012-0.036 0.013-0.038 0.012-0.073 0.023-0.037 0.012-0.037 0.011-0.036 0.011-0.038 0.011-0.036 0.011-0.036 0.010-0.037 0.010-0.037 0.010-0.036 0.010-0.037 0.009-0.037 0.010-0.036 0.009-0.037 0.009-0.037 0.008-0.036 0.008-0.037 0.008-0.037 0.008-0.036 0.008-0.074 0.015-0.036 0.007-0.037 0.007-0.037 0.006-0.036 0.007-0.037 0.006-0.037 0.006-0.036 0.005-0.037 0.006-0.037 0.005-0.036 0.006-0.037 0.004-0.037 0.005-0.036 0.005-0.037 0.004-0.037 0.004-0.11 0.012-0.036 0.003-0.037 0.004-0.037 0.003-0.010-0.007-0.014 0.001-0.037 0.003-0.037 0.003-0.036 0.001-0.037 0.003-0.11 0.004-0.111 0.002c-0.012 0-0.024-0.001-0.037-0.001h-0.074l-0.036-0.001-0.037-0.002c-0.013 0-0.024-0.001-0.036-0.001s-0.024-0.001-0.037-0.001l-0.074-0.004-0.037-0.003-0.032-0.003c-0.012-0.001-0.024-0.002-0.037-0.003s-0.024-0.003-0.037-0.004l-0.036-0.004-0.036-0.004-0.074-0.009-0.036-0.006c-0.013-0.001-0.024-0.004-0.037-0.005-0.012-0.003-0.024-0.004-0.036-0.006s-0.025-0.004-0.037-0.006c-0.013-0.002-0.024-0.005-0.037-0.008s-0.024-0.004-0.036-0.006c-0.013-0.003-0.024-0.005-0.037-0.008s-0.024-0.006-0.037-0.008c-0.012-0.003-0.024-0.006-0.036-0.009l-0.036-0.009c-0.013-0.003-0.024-0.006-0.037-0.010s-0.024-0.006-0.037-0.010c-0.012-0.003-0.024-0.007-0.036-0.010s-0.024-0.007-0.036-0.011c-0.013-0.004-0.025-0.008-0.037-0.012s-0.025-0.008-0.037-0.012c-0.013-0.004-0.024-0.008-0.036-0.012s-0.024-0.008-0.037-0.013c-0.012-0.004-0.024-0.008-0.037-0.013s-0.024-0.009-0.036-0.013c-0.013-0.004-0.024-0.010-0.037-0.014s-0.024-0.010-0.036-0.013c-0.013-0.006-0.024-0.011-0.037-0.016s-0.024-0.011-0.037-0.015c-0.012-0.006-0.024-0.012-0.036-0.017s-0.024-0.012-0.036-0.017c-0.013-0.006-0.025-0.013-0.037-0.018-0.013-0.006-0.025-0.013-0.037-0.019s-0.024-0.013-0.036-0.019c-0.013-0.008-0.024-0.014-0.037-0.021s-0.024-0.013-0.037-0.021c-0.012-0.007-0.024-0.014-0.036-0.022s-0.024-0.015-0.036-0.023c-0.013-0.008-0.025-0.015-0.037-0.023s-0.024-0.017-0.037-0.025c-0.013-0.009-0.024-0.017-0.036-0.026s-0.025-0.017-0.037-0.026c-0.013-0.010-0.024-0.019-0.036-0.029s-0.025-0.020-0.037-0.029c-0.013-0.010-0.025-0.020-0.037-0.030-0.013-0.011-0.024-0.022-0.036-0.033s-0.024-0.022-0.037-0.034c-0.012-0.012-0.024-0.023-0.037-0.035-0.012-0.013-0.024-0.024-0.036-0.036-0.013-0.013-0.024-0.026-0.036-0.040s-0.025-0.026-0.037-0.040c-0.013-0.013-0.024-0.028-0.037-0.042s-0.024-0.030-0.036-0.045c-0.013-0.015-0.025-0.031-0.037-0.047s-0.024-0.033-0.036-0.049c-0.013-0.018-0.025-0.036-0.037-0.053-0.013-0.019-0.024-0.039-0.036-0.058-0.013-0.020-0.025-0.040-0.037-0.061-0.013-0.022-0.025-0.044-0.037-0.066-0.013-0.024-0.024-0.048-0.036-0.072-0.013-0.026-0.025-0.052-0.037-0.078-0.012-0.029-0.025-0.058-0.036-0.086-0.013-0.033-0.025-0.065-0.036-0.098-0.013-0.037-0.026-0.074-0.037-0.112-0.013-0.044-0.026-0.089-0.036-0.135-0.014-0.056-0.026-0.114-0.036-0.173-0.015-0.088-0.028-0.177-0.037-0.269-0.010-0.107-0.015-0.216-0.015-0.329s0.005-0.223 0.015-0.329c0.009-0.093 0.021-0.182 0.037-0.269 0.011-0.058 0.022-0.116 0.036-0.173 0.012-0.046 0.024-0.090 0.036-0.134 0.012-0.038 0.024-0.076 0.037-0.112 0.012-0.033 0.024-0.065 0.036-0.098 0.012-0.029 0.024-0.058 0.036-0.086 0.012-0.026 0.024-0.052 0.037-0.078 0.012-0.024 0.024-0.048 0.036-0.072 0.012-0.022 0.024-0.044 0.037-0.067 0.012-0.020 0.024-0.040 0.037-0.061 0.012-0.020 0.024-0.038 0.036-0.057s0.024-0.036 0.037-0.053c0.012-0.017 0.024-0.034 0.036-0.051s0.024-0.031 0.037-0.047c0.012-0.015 0.024-0.030 0.036-0.044s0.024-0.028 0.037-0.043c0.012-0.013 0.024-0.027 0.037-0.040s0.024-0.026 0.036-0.038c0.012-0.013 0.024-0.025 0.036-0.037s0.025-0.024 0.037-0.035c0.013-0.012 0.024-0.022 0.037-0.034s0.024-0.021 0.036-0.031c0.012-0.011 0.024-0.020 0.037-0.031s0.024-0.019 0.037-0.029c0.012-0.009 0.024-0.019 0.036-0.028s0.024-0.018 0.037-0.027c0.012-0.009 0.024-0.017 0.036-0.026s0.024-0.017 0.037-0.026c0.012-0.008 0.024-0.016 0.037-0.024s0.024-0.015 0.036-0.023c0.012-0.008 0.024-0.014 0.036-0.022s0.025-0.014 0.037-0.021c0.013-0.006 0.024-0.013 0.037-0.020s0.024-0.013 0.036-0.019c0.012-0.007 0.024-0.013 0.037-0.019s0.024-0.012 0.037-0.018c0.012-0.006 0.024-0.012 0.036-0.017s0.024-0.012 0.036-0.017c0.013-0.005 0.024-0.011 0.037-0.016s0.024-0.010 0.037-0.015c0.012-0.004 0.024-0.009 0.036-0.014s0.024-0.010 0.037-0.014c0.012-0.004 0.024-0.009 0.036-0.013s0.025-0.009 0.037-0.013c0.013-0.004 0.024-0.009 0.037-0.013s0.024-0.008 0.036-0.012c0.012-0.004 0.024-0.008 0.037-0.012s0.024-0.008 0.037-0.012l0.036-0.011c0.012-0.003 0.024-0.007 0.036-0.010s0.024-0.006 0.037-0.010c0.013-0.003 0.024-0.006 0.037-0.009l0.036-0.009c0.013-0.002 0.024-0.005 0.036-0.008 0.013-0.002 0.025-0.005 0.037-0.008s0.024-0.005 0.037-0.008c0.012-0.003 0.024-0.004 0.036-0.007s0.024-0.005 0.037-0.008c0.012-0.001 0.024-0.004 0.037-0.006s0.024-0.004 0.036-0.006l0.037-0.005 0.036-0.005 0.111-0.013 0.036-0.004c0.013-0.001 0.025-0.002 0.037-0.004 0.013-0.001 0.025-0.001 0.037-0.003l0.036-0.002 0.037-0.003 0.037-0.002 0.036-0.001c0.013-0.001 0.024-0.001 0.037-0.001s0.024-0.001 0.036-0.001l0.037-0.001 0.036-0.001h0.037l0.036-0.001c0.013 0 0.025 0 0.037 0l0.148 0.003 0.073 0.003 0.037 0.002 0.036 0.001 0.037 0.002 0.037 0.003 0.014 0.001 0.022 0.001 0.037 0.003 0.037 0.003 0.184 0.019 0.037 0.004 0.036 0.004 0.074 0.009 0.036 0.005 0.074 0.010 0.036 0.006 0.037 0.006 0.037 0.006 0.036 0.006 0.037 0.006 0.037 0.007 0.036 0.007 0.037 0.006 0.037 0.008 0.036 0.008 0.074 0.015 0.036 0.008 0.074 0.017 0.036 0.009 0.074 0.018 0.036 0.010 0.037 0.009 0.037 0.010 0.036 0.011 0.036 0.010 0.038 0.011 0.036 0.011 0.037 0.010 0.037 0.012 0.073 0.023 0.038 0.012 0.036 0.012 0.037 0.012 0.036 0.012 0.037 0.013 0.036 0.013 0.038 0.013 0.036 0.013 0.036 0.013 0.037 0.014 0.037 0.013 0.036 0.014 0.038 0.013 0.036 0.015 0.036 0.014 0.074 0.029 0.036 0.015 0.038 0.016 0.036 0.016 0.036 0.015 0.037 0.016 0.037 0.017 0.036 0.017 0.074 0.033 0.036 0.017 0.074 0.035 0.11 0.053 0.036 0.018 0.074 0.036v-1.606l-0.037-0.009-0.037-0.008-0.036-0.009-0.037-0.008-0.037-0.009-0.036-0.008-0.074-0.017-0.036-0.008-0.074-0.017-0.036-0.008-0.037-0.008-0.037-0.008-0.036-0.008-0.036-0.008-0.038-0.008-0.036-0.008-0.037-0.007-0.037-0.008-0.036-0.008-0.036-0.007-0.038-0.008-0.036-0.007-0.037-0.006-0.037-0.007-0.036-0.007-0.036-0.006-0.038-0.007-0.036-0.006-0.037-0.007-0.036-0.006-0.037-0.006-0.036-0.006-0.038-0.007-0.11-0.017-0.037-0.005-0.036-0.006-0.038-0.006-0.036-0.005-0.036-0.006-0.259-0.036-0.037-0.004-0.036-0.005-0.221-0.027-0.037-0.004-0.037-0.004-0.074-0.008-0.037-0.004-0.036-0.003-0.074-0.008-0.036-0.003-0.037-0.004-0.037-0.003-0.036-0.003-0.074-0.006-0.073-0.005-0.037-0.002-0.074-0.005-0.037-0.002-0.041-0.003-0.037-0.002-0.055-0.002-0.018-0.001-0.074-0.003-0.035-0.002-0.037-0.001-0.037-0.002-0.036-0.001-0.036-0.001-0.037-0.001-0.036-0.001-0.074-0.001-0.036-0.001-0.073-0.001h-0.036l-0.037-0.001h-0.074l-0.037-0.001h-0.147l-0.037 0.001h-0.036l-0.108 0.002h-0.037l-0.036 0.001-0.037 0.001-0.073 0.003-0.036 0.001-0.146 0.005-0.036 0.003-0.037 0.002-0.036 0.001-0.036 0.003-0.037 0.002-0.036 0.001-0.037 0.003-0.074 0.004-0.037 0.003-0.073 0.005-0.037 0.004-0.037 0.003-0.036 0.003-0.037 0.003-0.184 0.019-0.036 0.004-0.037 0.004-0.031 0.006-0.037 0.004-0.037 0.005-0.036 0.004-0.037 0.005-0.037 0.004-0.073 0.010-0.037 0.006-0.037 0.005-0.036 0.006-0.037 0.006-0.036 0.006-0.037 0.006-0.036 0.007-0.037 0.007-0.037 0.006-0.036 0.007-0.037 0.008-0.036 0.007-0.036 0.008-0.037 0.008-0.036 0.008-0.036 0.008-0.037 0.008-0.036 0.008-0.036 0.009-0.037 0.008-0.073 0.018-0.037 0.010-0.036 0.009-0.036 0.010-0.037 0.011-0.036 0.010-0.073 0.022-0.037 0.012-0.073 0.023-0.037 0.012c-0.012 0.004-0.024 0.008-0.036 0.012l-0.036 0.012c-0.013 0.004-0.025 0.008-0.037 0.012l-0.073 0.026c-0.013 0.004-0.024 0.009-0.037 0.013s-0.024 0.009-0.036 0.013l-0.036 0.013c-0.013 0.004-0.025 0.010-0.036 0.014l-0.037 0.014-0.036 0.014-0.036 0.015-0.037 0.015-0.036 0.015-0.036 0.016-0.037 0.016-0.036 0.017-0.036 0.017c-0.012 0.006-0.024 0.012-0.037 0.017l-0.073 0.036-0.037 0.019c-0.012 0.006-0.024 0.012-0.036 0.019-0.013 0.006-0.024 0.013-0.036 0.019l-0.037 0.020-0.036 0.020c-0.013 0.007-0.025 0.014-0.036 0.021-0.013 0.007-0.024 0.013-0.036 0.021-0.013 0.006-0.024 0.014-0.037 0.022s-0.024 0.015-0.036 0.023-0.024 0.015-0.036 0.022-0.025 0.015-0.037 0.024l-0.036 0.024c-0.013 0.008-0.024 0.015-0.036 0.024l-0.037 0.025c-0.012 0.009-0.024 0.017-0.036 0.026s-0.024 0.017-0.036 0.027c-0.013 0.008-0.025 0.017-0.037 0.026s-0.025 0.019-0.036 0.028c-0.013 0.010-0.024 0.020-0.036 0.028-0.004 0.008-0.016 0.018-0.028 0.028v0 0z"></path>
</svg>
