<?xml version="1.0" encoding="UTF-8" standalone="no"?>
<svg width="20px" height="16px" viewBox="0 0 20 16" version="1.1" xmlns="http://www.w3.org/2000/svg" xmlns:xlink="http://www.w3.org/1999/xlink">
    <!-- Generator: Sketch 3.7.1 (28215) - http://www.bohemiancoding.com/sketch -->
    <title>creditcard-outline</title>
    <desc>Created with Sketch.</desc>
    <defs></defs>
    <g id="Page-1" stroke="none" stroke-width="1" fill="none" fill-rule="evenodd">
        <g id="Styleguide-V01-Copy" transform="translate(-1054.000000, -7344.000000)" fill="#4F5355">
            <g id="Credit-Card" transform="translate(1054.000000, 7344.000000)">
                <polygon id="Fill-1" points="1 6 19 6 19 5 1 5"></polygon>
                <path d="M18,0 L2,0 C0.8955,0 0,0.8955 0,2 L0,14 C0,15.1045 0.8955,16 2,16 L18,16 C19.1045,16 20,15.1045 20,14 L20,2 C20,0.8955 19.1045,0 18,0 M18,1 C18.5515,1 19,1.4485 19,2 L19,14 C19,14.5515 18.5515,15 18,15 L2,15 C1.4485,15 1,14.5515 1,14 L1,2 C1,1.4485 1.4485,1 2,1 L18,1" id="Fill-2"></path>
            </g>
        </g>
    </g>
</svg>
