<?xml version="1.0" encoding="utf-8"?>
<!-- Generated by IcoMoon.io -->
<!DOCTYPE svg PUBLIC "-//W3C//DTD SVG 1.1//EN" "http://www.w3.org/Graphics/SVG/1.1/DTD/svg11.dtd">
<svg version="1.1" xmlns="http://www.w3.org/2000/svg" xmlns:xlink="http://www.w3.org/1999/xlink" width="51" height="32" viewBox="0 0 51 32">
<path fill="#2b73a0" d="M3.574 31.882c-1.965 0-3.563-1.598-3.563-3.563v-24.623c0-1.965 1.597-3.564 3.563-3.564h44.062c1.964 0 3.564 1.599 3.564 3.564v24.623c0 1.965-1.599 3.563-3.564 3.563h-44.062z"></path>
<path fill="#fefefe" d="M35.223 10.548l-0.774 1.878h1.555l-0.781-1.878z"></path>
<path fill="#fefefe" d="M26.244 11.679c0.145-0.077 0.23-0.243 0.23-0.449 0-0.201-0.090-0.347-0.237-0.415-0.132-0.076-0.336-0.085-0.532-0.085h-1.388v1.046h1.368c0.218 0 0.402-0.003 0.557-0.097h0.002z"></path>
<path fill="#fefefe" d="M26.281 11.658c0.026-0.013 0.044-0.022 0 0z"></path>
<path fill="#fefefe" d="M25.571 18.826h-1.467v1.199h1.456c0.431 0 0.701-0.214 0.701-0.622 0-0.413-0.283-0.578-0.69-0.578v0.001z"></path>
<path fill="#fefefe" d="M31.053 18.911c-0.136-0.081-0.336-0.085-0.538-0.085h-1.387v1.059h1.368c0.218 0 0.405-0.010 0.556-0.099 0.145-0.086 0.232-0.252 0.232-0.452 0-0.202-0.088-0.347-0.232-0.423v0z"></path>
<path fill="#fefefe" d="M7.725 12.426h1.538l-0.772-1.878-0.765 1.878z"></path>
<path fill="#fefefe" d="M31.053 19.786c0.024-0.015 0.040-0.022 0.049-0.028-0.020 0.012-0.049 0.028-0.049 0.028z"></path>
<path fill="#fefefe" d="M14.030 14.459l-1.638-3.693v3.693h-2.289l-0.434-1.050h-2.344l-0.438 1.050h-1.222l2.017-4.71h1.673l1.916 4.462v-4.462h1.837l1.475 3.196 1.354-3.196h1.875v4.71h-1.153l-0.005-3.689-1.632 3.689h-0.991zM18.651 9.747h3.761v0.981h-2.635v0.85h2.573v0.966h-2.573v0.94h2.635v0.975h-3.761v-4.712zM23.192 9.747h2.589c0.575 0 1 0.015 1.364 0.226 0.357 0.211 0.57 0.517 0.57 1.043 0 0.751-0.499 1.139-0.792 1.256 0.248 0.093 0.457 0.259 0.557 0.396 0.159 0.235 0.186 0.444 0.186 0.865v0.924h-1.137l-0.003-0.595c0-0.283 0.028-0.691-0.178-0.918-0.165-0.166-0.415-0.201-0.821-0.201h-1.209v1.713h-1.126v-4.71l0.001 0.001zM28.368 9.747h1.149v4.711h-1.149v-4.711zM30.678 10.297c0.363-0.376 0.934-0.55 1.709-0.55h1.090v1.009h-1.068c-0.41 0-0.643 0.061-0.866 0.28-0.193 0.199-0.324 0.573-0.324 1.068 0 0.504 0.1 0.868 0.31 1.105 0.173 0.187 0.489 0.243 0.786 0.243h0.506l1.587-3.706h1.688l1.906 4.457v-4.456h1.715l1.98 3.282v-3.282h1.154v4.711h-1.596l-2.134-3.536v3.536h-2.292l-0.439-1.051h-2.34l-0.425 1.051h-1.318c-0.547 0-1.24-0.122-1.633-0.521-0.396-0.4-0.6-0.943-0.6-1.799 0-0.699 0.121-1.338 0.605-1.843v0 0.002zM15.841 14.573v0.812h9.409l-0.003-1.718h0.182c0.127 0.004 0.164 0.017 0.164 0.227v1.491h4.866v-0.399c0.394 0.21 1.002 0.399 1.806 0.399h2.048l0.438-1.046h0.971l0.428 1.046h3.947v-0.995l0.597 0.995h3.16v-6.571h-3.128v0.776l-0.439-0.776h-3.21v0.776l-0.403-0.776h-4.337c-0.724 0-1.363 0.101-1.88 0.384v-0.384h-2.992v0.384c-0.328-0.291-0.776-0.384-1.272-0.384h-10.932l-0.733 1.697-0.753-1.697h-3.443v0.776l-0.378-0.776h-2.936l-1.364 3.124-1.512 3.446h3.437l0.434-1.046h0.971l0.433 1.046h3.784v-0.8l0.339 0.804h1.965l0.339-0.815-0.003-0.001z"></path>
<path fill="#fefefe" d="M22.982 22.135v-3.778l-1.729 1.858 1.729 1.92z"></path>
<path fill="#fefefe" d="M15.747 18.826v0.856h2.474v0.962h-2.474v0.938h2.771l1.285-1.382-1.231-1.373-2.824-0.001z"></path>
<path fill="#fefefe" d="M44.179 22.563h-2.174v-1.010h2.166c0.216 0 0.366-0.028 0.458-0.116 0.078-0.072 0.132-0.178 0.132-0.307 0-0.139-0.054-0.246-0.138-0.312-0.082-0.072-0.201-0.106-0.396-0.106-1.057-0.035-2.377 0.034-2.377-1.457 0-0.682 0.435-1.404 1.616-1.404h2.243v1.003h-2.052c-0.205 0-0.342 0.008-0.458 0.085-0.118 0.076-0.164 0.19-0.164 0.34 0 0.177 0.1 0.299 0.246 0.351 0.118 0.042 0.248 0.053 0.435 0.053l0.611 0.015c0.616 0.015 1.027 0.122 1.278 0.38 0.046 0.036 0.072 0.077 0.104 0.117v0.012c0.109 0.156 0.269 0.457 0.269 0.899 0 0.397-0.135 0.678-0.269 0.861v-0.006c-0.275 0.399-0.808 0.602-1.528 0.602v0h-0.002zM39.784 22.563h-2.194v-1.010h2.185c0.214 0 0.365-0.028 0.459-0.116 0.077-0.072 0.134-0.178 0.134-0.307 0-0.139-0.061-0.246-0.139-0.312-0.086-0.072-0.205-0.106-0.399-0.106-1.054-0.035-2.373 0.034-2.373-1.457 0-0.682 0.428-1.404 1.61-1.404h2.258v1.005h-2.066c-0.205 0-0.339 0.006-0.451 0.085-0.122 0.074-0.169 0.188-0.169 0.337 0 0.177 0.104 0.299 0.246 0.352 0.118 0.041 0.246 0.054 0.439 0.054l0.606 0.016c0.611 0.015 1.030 0.12 1.286 0.38 0.22 0.227 0.336 0.512 0.336 0.998 0 1.014-0.634 1.487-1.77 1.487v0l0.003-0.003zM36.916 18.826h-2.637v0.856h2.573v0.962h-2.573v0.938l2.637 0.004v0.977h-3.76v-4.712h3.76v0.975zM31.734 20.373c0.251 0.093 0.456 0.257 0.552 0.396 0.16 0.23 0.182 0.445 0.187 0.86v0.936h-1.132v-0.589c0-0.284 0.028-0.705-0.182-0.923-0.164-0.169-0.416-0.211-0.826-0.211h-1.204v1.722h-1.132v-4.712h2.6c0.57 0 0.984 0.025 1.354 0.223 0.356 0.213 0.58 0.509 0.58 1.046 0 0.752-0.502 1.135-0.799 1.254v0-0.003zM25.508 20.983h-1.405v1.58h-2.189l-1.387-1.56-1.441 1.56h-4.461v-4.712h4.53l1.386 1.545 1.431-1.545h3.599c0.894 0 1.899 0.248 1.899 1.553 0 1.308-0.977 1.58-1.962 1.58v0zM46.539 16.911h-0.552v0.002h-2.362c-0.63 0-1.087 0.15-1.411 0.387v-0.387h-3.080c-0.494 0-1.074 0.122-1.346 0.387v-0.387h-5.507v0.387c-0.437-0.317-1.176-0.387-1.518-0.387h-3.63v0.387c-0.347-0.337-1.118-0.387-1.588-0.387h-4.065l-0.929 1.006-0.87-1.006h-6.070v6.577h5.956l0.959-1.024 0.904 1.024 3.67 0.001v-1.546h0.361c0.487 0.009 1.062-0.012 1.567-0.231v1.776h3.028v-1.715h0.147c0.186 0 0.203 0.008 0.203 0.195v1.521h9.199c0.584 0 1.195-0.15 1.533-0.422v0.422h2.894c0.068 0.001 0.141 0.004 0.227 0.004 0.508 0 0.903-0.052 1.21-0.129l-0.001 0.003c0.012-0.004 0.023-0.006 0.036-0.010 0.009-0.003 0.019-0.006 0.029-0.008 0.275-0.065 0.49-0.171 0.654-0.292 0.019-0.012 0.033-0.024 0.047-0.037 0.020-0.015 0.041-0.033 0.062-0.051 0.007-0.007 0.015-0.013 0.021-0.019 0.371-0.342 0.429-0.745 0.429-0.745v-5.293h-0.206l-0.002-0.001z"></path>
</svg>
