<?xml version="1.0" encoding="utf-8"?>
<!-- Generated by IcoMoon.io -->
<!DOCTYPE svg PUBLIC "-//W3C//DTD SVG 1.1//EN" "http://www.w3.org/Graphics/SVG/1.1/DTD/svg11.dtd">
<svg version="1.1" xmlns="http://www.w3.org/2000/svg" xmlns:xlink="http://www.w3.org/1999/xlink" width="51" height="32" viewBox="0 0 51 32">
<path fill="#fefefe" d="M3.84 31.667c-1.94 0-3.519-1.578-3.519-3.519v-24.31c0-1.94 1.578-3.519 3.519-3.519h43.501c1.94 0 3.519 1.578 3.519 3.519v24.31c0 1.94-1.578 3.519-3.519 3.519h-43.501z"></path>
<path fill="#bbbdbf" d="M47.341 0h-43.503c-2.12 0-3.839 1.719-3.839 3.839v24.31c0 2.12 1.719 3.839 3.839 3.839h43.503c2.119 0 3.838-1.719 3.838-3.839v-24.31c0-2.12-1.72-3.839-3.838-3.839zM47.341 0.641c1.764 0 3.198 1.434 3.198 3.198v24.31c0 1.764-1.434 3.198-3.198 3.198h-43.503c-1.764 0-3.198-1.434-3.198-3.198v-24.31c0-1.764 1.434-3.198 3.198-3.198h43.503z"></path>
<path fill="#d6a666" d="M44.14 16.154c0.003 6.186-4.958 11.201-11.079 11.203s-11.082-5.011-11.083-11.197v-0.006c-0.003-6.186 4.957-11.202 11.078-11.203s11.082 5.012 11.084 11.199v0.006c0 0 0-0.002 0 0v-0.001z"></path>
<path fill="#d26666" d="M18.123 4.954c-6.083 0.039-11.009 5.041-11.009 11.2 0 6.182 4.964 11.2 11.081 11.2 2.871 0 5.487-1.107 7.457-2.918 0 0 0 0-0.001-0.003h0.003c0.403-0.371 0.779-0.771 1.125-1.199h-2.271c-0.303-0.37-0.58-0.754-0.827-1.154h3.916c0.237-0.385 0.453-0.786 0.645-1.2h-5.208c-0.177-0.385-0.33-0.776-0.462-1.176h6.134c0.37-1.116 0.57-2.31 0.57-3.552 0-0.823-0.089-1.626-0.256-2.398h-6.774c0.083-0.398 0.19-0.79 0.316-1.177h6.136c-0.138-0.411-0.296-0.812-0.476-1.199h-5.188c0.188-0.404 0.4-0.796 0.637-1.176h3.912c-0.259-0.419-0.547-0.82-0.86-1.199h-2.182c0.338-0.401 0.709-0.78 1.112-1.132-1.97-1.812-4.588-2.918-7.459-2.918h-0.072z"></path>
<path fill="#fefefe" d="M22.179 19.005l0.148-1.014c-0.080 0-0.199 0.035-0.303 0.035-0.412 0-0.456-0.22-0.431-0.383l0.333-2.069h0.625l0.15-1.121h-0.588l0.12-0.698h-1.18c-0.026 0.026-0.696 3.921-0.696 4.396 0 0.702 0.391 1.014 0.941 1.009 0.431-0.004 0.765-0.125 0.883-0.156 0 0-0.118 0.031 0 0l-0.001 0.001z"></path>
<path fill="#fefefe" d="M24.622 15.389c0.666 0 0.543 0.756 0.543 0.817h-1.311c0-0.078 0.124-0.817 0.767-0.817 0 0-0.643 0 0 0v0zM22.553 17.073c0 1.686 1.1 2.086 2.038 2.086 0.865 0 1.247-0.195 1.247-0.195l0.208-1.151c0 0-0.659 0.295-1.253 0.295-1.267 0-1.044-0.955-1.044-0.955h2.397c0 0 0.154-0.773 0.154-1.088 0-0.786-0.386-1.743-1.681-1.743-1.187 0-2.065 1.292-2.065 2.752 0 0.001 0-1.46 0 0v0z"></path>
<path fill="#fefefe" d="M32.093 19.005l0.211-1.3c0 0-0.579 0.294-0.975 0.294-0.839 0-1.173-0.647-1.173-1.34 0-1.409 0.72-2.184 1.521-2.184 0.602 0 1.084 0.341 1.084 0.341l0.192-1.263c0 0-0.714-0.292-1.328-0.292-1.363 0-2.687 1.194-2.687 3.437 0 1.487 0.717 2.47 2.123 2.47 0.4 0.001 1.032-0.163 1.032-0.163z"></path>
<path fill="#fefefe" d="M15.944 17.012c0.022 0.201-0.125 1.141-0.836 1.141-0.366 0-0.463-0.281-0.463-0.449 0-0.328 0.176-0.719 1.041-0.719 0.202 0 0.223 0.023 0.258 0.027 0 0-0.035-0.004 0 0zM15.69 14.338c-0.809 0-1.429 0.264-1.429 0.264l-0.172 1.026c0 0 0.511-0.21 1.285-0.21 0.44 0 0.76 0.050 0.76 0.412 0 0.219-0.040 0.3-0.040 0.3s-0.347-0.029-0.506-0.029c-1.021 0-2.093 0.441-2.093 1.768 0 1.045 0.703 1.285 1.139 1.285 0.833 0 1.192-0.547 1.211-0.547l-0.040 0.456h1.040l0.464-3.284c0-1.395-1.203-1.439-1.62-1.439v0z"></path>
<path fill="#fefefe" d="M18.414 19.13c0.266 0 1.786 0.068 1.786-1.516 0-1.48-1.406-1.188-1.406-1.784 0-0.296 0.23-0.39 0.648-0.39 0.166 0 0.806 0.053 0.806 0.053l0.15-1.053c0 0-0.414-0.093-1.089-0.093-0.872 0-1.759 0.351-1.759 1.557 0 1.364 1.478 1.229 1.478 1.804 0 0.385-0.413 0.415-0.732 0.415-0.55 0-1.046-0.191-1.048-0.181l-0.156 1.043c0.028 0.008 0.333 0.147 1.324 0.147 0 0-0.991 0 0 0h-0.002z"></path>
<path fill="#fefefe" d="M41.318 16.507c0 0.629-0.309 1.471-0.947 1.471-0.426 0-0.625-0.362-0.625-0.926 0-0.925 0.411-1.535 0.927-1.535 0.427 0 0.644 0.294 0.644 0.989 0 0 0-0.695 0 0v0 0zM41.866 13.395l-0.255 1.596c0 0-0.443-0.62-1.139-0.62-1.080 0-1.982 1.318-1.982 2.831 0 0.977 0.48 1.934 1.464 1.934 0.706 0 1.098-0.497 1.098-0.497l-0.052 0.425h1.148l0.901-5.671-1.183 0.002z"></path>
<path fill="#fefefe" d="M9.302 19.068l0.717-4.281 0.107 4.281h0.812l1.516-4.281-0.672 4.281h1.209l0.93-5.679h-1.869l-1.163 3.483-0.061-3.483h-1.721l-0.944 5.679h1.138z"></path>
<path fill="#fefefe" d="M27.48 19.076c0.344-1.974 0.407-3.576 1.228-3.283 0.143-0.763 0.28-1.059 0.438-1.383 0 0-0.074-0.015-0.227-0.015-0.528 0-0.92 0.73-0.92 0.73l0.106-0.67h-1.099l-0.735 4.623h1.21v-0.003z"></path>
<path fill="#fefefe" d="M35.069 17.012c0.022 0.201-0.125 1.141-0.836 1.141-0.367 0-0.461-0.281-0.461-0.449 0-0.328 0.175-0.719 1.040-0.719 0.201 0 0.221 0.023 0.257 0.027 0 0-0.036-0.004 0 0zM34.816 14.338c-0.812 0-1.43 0.264-1.43 0.264l-0.172 1.026c0 0 0.513-0.21 1.286-0.21 0.44 0 0.76 0.050 0.76 0.412 0 0.219-0.038 0.3-0.038 0.3s-0.346-0.029-0.507-0.029c-1.021 0-2.092 0.441-2.092 1.768 0 1.045 0.703 1.285 1.139 1.285 0.832 0 1.19-0.547 1.21-0.547l-0.040 0.456h1.039l0.465-3.284c0-1.395-1.203-1.439-1.621-1.439v0z"></path>
<path fill="#fefefe" d="M37.384 19.076c0.344-1.974 0.407-3.576 1.228-3.283 0.143-0.763 0.282-1.059 0.438-1.383 0 0-0.073-0.015-0.227-0.015-0.528 0-0.92 0.73-0.92 0.73l0.106-0.67h-1.098l-0.735 4.623h1.21v-0.003z"></path>
</svg>
