<svg xmlns="http://www.w3.org/2000/svg" viewBox="0 0 41.94 32"><defs><style>.cls-1{fill:#026aad;}.cls-2{fill:#fff;}</style></defs><title>Asset 2</title><g id="Layer_2" data-name="Layer 2"><g id="Layer_1-2" data-name="Layer 1"><path class="cls-1" d="M39.21,0H2.74A2.78,2.78,0,0,0,0,2.82V29.18A2.78,2.78,0,0,0,2.74,32H39.21a2.78,2.78,0,0,0,2.74-2.82V2.82A2.78,2.78,0,0,0,39.21,0Z"/><path class="cls-2" d="M18.18,12.4V19.6a3.71,3.71,0,0,0,0-7.19Z"/><path class="cls-2" d="M24.7,8.54H17.24a7.46,7.46,0,0,0,0,14.91H24.7a7.46,7.46,0,0,0,0-14.91Zm-7.46,13A5.59,5.59,0,1,1,22.84,16,5.6,5.6,0,0,1,17.24,21.59Z"/><path class="cls-2" d="M16.31,12.4a3.71,3.71,0,0,0,0,7.19Z"/></g></g></svg>