<svg xmlns="http://www.w3.org/2000/svg" viewBox="0 0 41.94 32"><defs><style>.cls-1{fill:#f0eeeb;}.cls-2{fill:#f37121;}.cls-3{fill:#454545;}</style></defs><title>Asset 6</title><g id="Layer_2" data-name="Layer 2"><g id="Layer_1-2" data-name="Layer 1"><path class="cls-1" d="M39.21,0H2.74A2.78,2.78,0,0,0,0,2.82V29.18A2.78,2.78,0,0,0,2.74,32H39.21a2.78,2.78,0,0,0,2.74-2.82V2.82A2.78,2.78,0,0,0,39.21,0Z"/><path class="cls-2" d="M21.71,13.87A2.15,2.15,0,0,0,19.52,16a2.18,2.18,0,1,0,2.19-2.11Z"/><path class="cls-3" d="M9.3,13.94H8.12V18H9.29a2.14,2.14,0,0,0,1.46-.47A2.06,2.06,0,0,0,11.5,16,2,2,0,0,0,9.3,13.94ZM10.23,17a1.52,1.52,0,0,1-1.1.33H8.92V14.64h.21a1.49,1.49,0,0,1,1.1.33,1.38,1.38,0,0,1,.44,1A1.41,1.41,0,0,1,10.23,17Z"/><rect class="cls-3" x="11.87" y="13.94" width="0.8" height="4.1"/><path class="cls-3" d="M14.62,15.52c-.48-.18-.62-.29-.62-.52s.25-.45.6-.45a.83.83,0,0,1,.65.33l.42-.55a1.78,1.78,0,0,0-1.2-.46A1.2,1.2,0,0,0,13.17,15c0,.57.26.85,1,1.13a3,3,0,0,1,.55.23.49.49,0,0,1,.24.42.58.58,0,0,1-.62.58,1,1,0,0,1-.87-.55l-.52.5a1.6,1.6,0,0,0,1.42.78A1.32,1.32,0,0,0,15.8,16.8C15.8,16.14,15.53,15.85,14.62,15.52Z"/><path class="cls-3" d="M16.05,16a2.12,2.12,0,0,0,2.16,2.14,2.2,2.2,0,0,0,1-.24V17a1.27,1.27,0,0,1-1,.45A1.34,1.34,0,0,1,16.87,16a1.36,1.36,0,0,1,1.34-1.41,1.33,1.33,0,0,1,1,.46V14.1a2,2,0,0,0-1-.25A2.15,2.15,0,0,0,16.05,16Z"/><polygon class="cls-3" points="25.7 16.7 24.6 13.95 23.73 13.95 25.47 18.15 25.9 18.15 27.67 13.95 26.8 13.95 25.7 16.7"/><polygon class="cls-3" points="28.03 18.05 30.3 18.05 30.3 17.35 28.83 17.35 28.83 16.24 30.24 16.24 30.24 15.55 28.83 15.55 28.83 14.64 30.3 14.64 30.3 13.95 28.03 13.95 28.03 18.05"/><path class="cls-3" d="M33.47,15.15c0-.77-.53-1.21-1.45-1.21H30.83V18h.8V16.4h.1L32.84,18h1l-1.29-1.73A1.09,1.09,0,0,0,33.47,15.15Zm-1.6.68h-.23V14.59h.24c.5,0,.77.21.77.61S32.37,15.83,31.86,15.83Z"/><path class="cls-2" d="M41.94,29.36V16.89C38.43,22.41,27.2,30.08,13.45,32H39.31A2.64,2.64,0,0,0,41.94,29.36Z"/></g></g></svg>