<svg xmlns="http://www.w3.org/2000/svg" viewBox="0 0 41.94 32"><defs><style>.cls-1{fill:#f0eeeb;}.cls-2{fill:#fff;}.cls-3{fill:#2a9847;}.cls-4{fill:#064f9a;}.cls-5{fill:#ad1e34;}</style></defs><title>Asset 13</title><g id="Layer_2" data-name="Layer 2"><g id="Layer_1-2" data-name="Layer 1"><path class="cls-1" d="M39.21,0H2.74A2.78,2.78,0,0,0,0,2.82V29.18A2.78,2.78,0,0,0,2.74,32H39.21a2.78,2.78,0,0,0,2.74-2.82V2.82A2.78,2.78,0,0,0,39.21,0Z"/><rect class="cls-2" x="9.93" y="12.45" width="6.31" height="7.1"/><rect class="cls-2" x="17.82" y="12.45" width="6.31" height="7.1"/><rect class="cls-2" x="25.71" y="12.45" width="6.31" height="7.1"/><path class="cls-3" d="M27,16.32h1.48a.69.69,0,0,1,.74.53.72.72,0,0,1,0,.16.73.73,0,0,1,0,.16.68.68,0,0,1-.71.53H27V16.32Zm2-1.57a.7.7,0,0,1,0,.3c-.08.36-.37.49-.74.49H27V14.26h1.33a.64.64,0,0,1,.71.49Zm3-6.64V21.52a2.37,2.37,0,0,1-2.37,2.37H25.71V18.53H29.8c.89,0,1.66-.46,1.66-1.31a1.25,1.25,0,0,0,0-.16c-.09-.64-.7-1-1.5-1.1v0a1.25,1.25,0,0,0,1.2-1.21,1.1,1.1,0,0,0-.56-1,2.64,2.64,0,0,0-1.4-.25H25.71v-3a2.37,2.37,0,0,1,2.37-2.37Z"/><path class="cls-4" d="M9.93,17.24V10.48a2.37,2.37,0,0,1,2.37-2.37h3.95V21.52a2.36,2.36,0,0,1-2.36,2.37H9.93V18.35a9.25,9.25,0,0,0,4.64,0,1.84,1.84,0,0,0,1.31-1.87V13.47H13.61v3.05a1.21,1.21,0,0,1-.94,1.25A4.59,4.59,0,0,1,9.93,17.24Z"/><path class="cls-5" d="M17.82,14.18V10.48a2.37,2.37,0,0,1,2.37-2.37h3.95V21.52a2.37,2.37,0,0,1-2.37,2.37H17.82V17.82a4.18,4.18,0,0,0,2.33.82,10.4,10.4,0,0,0,3.42-.29V17.24a4.76,4.76,0,0,1-2.61.57A1.7,1.7,0,0,1,19.3,16,1.7,1.7,0,0,1,21,14.19a4.86,4.86,0,0,1,2.58.58V13.65a10.6,10.6,0,0,0-3-.32A4.53,4.53,0,0,0,17.82,14.18Z"/></g></g></svg>