<svg version="1.1" id="Layer_1" xmlns="http://www.w3.org/2000/svg" xmlns:xlink="http://www.w3.org/1999/xlink" x="0px" y="0px"
	 width="101px" height="32px" viewBox="0 0 101 32" enable-background="new 0 0 101 32" xml:space="preserve" title="Bambora" alt="Bambora">
<title>Bambora</title>
<path fill="currentColor" d="M7.923,16.435c0-1.38-1.007-2.505-2.388-2.505c-0.753,0-1.488,0.229-2.115,0.961v3.13
	c0.626,0.731,1.361,0.941,2.115,0.941C6.916,18.963,7.923,17.855,7.923,16.435L7.923,16.435z M11.252,16.435
	c0,3.028-2.305,5.304-5.046,5.304c-1.109,0-2.031-0.294-2.784-0.772c0,0-1.69,0.523-3.392,0.523V7.764
	c1.703,0,3.392-0.52,3.392-0.52v4.703c0.753-0.479,1.675-0.771,2.784-0.771c2.741,0,5.046,2.255,5.046,5.261l0,0l0,0V16.435z
	 M48.785,16.435c0-1.38-1.008-2.505-2.388-2.505c-0.753,0-1.488,0.229-2.114,0.961v3.13c0.627,0.731,1.36,0.941,2.114,0.941
	C47.777,18.963,48.785,17.855,48.785,16.435L48.785,16.435z M52.113,16.435c0,3.028-2.304,5.304-5.045,5.304
	c-1.109,0-2.031-0.294-2.784-0.772c0,0-1.688,0.523-3.392,0.523V7.764c1.704,0,3.392-0.52,3.392-0.52v4.703
	c0.753-0.479,1.675-0.771,2.784-0.771c2.741,0,5.045,2.255,5.045,5.261l0,0l0,0V16.435z M60.2,16.435
	c0-1.316-0.923-2.381-2.282-2.381c-1.383,0-2.305,1.065-2.305,2.381c0,1.356,0.921,2.441,2.305,2.441
	C59.277,18.876,60.2,17.791,60.2,16.435L60.2,16.435z M63.402,16.413c0,3.091-2.303,5.387-5.506,5.387
	c-3.205,0-5.504-2.296-5.504-5.387c0-3.048,2.303-5.283,5.504-5.283C61.102,11.13,63.402,13.365,63.402,16.413L63.402,16.413z
	 M67.221,11.361v1.085c0.898-0.771,1.988-1.253,3.495-1.253v3.216c-1.657,0.064-2.7,0.501-3.495,1.295v5.785h-3.394v-9.606
	c1.704,0,3.394-0.52,3.394-0.52V11.361L67.221,11.361z M26.825,11.967c-1.704,0-3.393-0.523-3.393-0.523v10.044h3.393v-6.475
	c0.502-0.647,1.005-0.897,1.529-0.897c1.109,0,1.82,0.688,1.82,2.131v5.241h3.392v-5.787c0-0.25-0.019-0.501-0.041-0.752
	c0.502-0.606,1.027-0.835,1.548-0.835c1.131,0,1.822,0.688,1.822,2.132v5.24h3.414v-5.785c0-2.88-1.803-4.656-4.232-4.656
	c-1.507,0-2.531,0.418-3.6,1.357c-0.753-0.878-1.843-1.356-3.119-1.356C28.227,11.046,27.515,11.38,26.825,11.967L26.825,11.967
	L26.825,11.967z M19.358,17.979v-3.132c-0.626-0.73-1.361-0.959-2.114-0.959c-1.38,0-2.388,1.126-2.388,2.525
	c0,1.398,1.007,2.507,2.388,2.507C17.997,18.919,18.732,18.711,19.358,17.979L19.358,17.979L19.358,17.979L19.358,17.979z
	 M22.75,21.488c-1.702,0-3.392-0.564-3.392-0.564c-0.753,0.48-1.675,0.771-2.784,0.771c-2.742,0-5.046-2.274-5.046-5.281
	c0-3.025,2.304-5.282,5.046-5.282c1.109,0,2.031,0.294,2.784,0.773c1.691,0,3.392-0.542,3.392-0.542V21.488L22.75,21.488z
	 M78.449,17.979v-3.132c-0.629-0.73-1.36-0.959-2.114-0.959c-1.383,0-2.387,1.126-2.387,2.525c0,1.398,1.004,2.507,2.387,2.507
	C77.088,18.919,77.82,18.711,78.449,17.979L78.449,17.979L78.449,17.979L78.449,17.979z M81.841,21.488
	c-1.704,0-3.392-0.564-3.392-0.564c-0.754,0.48-1.676,0.771-2.785,0.771c-2.743,0-5.045-2.274-5.045-5.281
	c0-3.025,2.303-5.282,5.045-5.282c1.109,0,2.031,0.294,2.785,0.773c1.688,0,3.392-0.542,3.392-0.542V21.488L81.841,21.488z
	 M98.549,0.624c0.18,0.036,0.355-0.083,0.393-0.26c0.033-0.18-0.084-0.355-0.265-0.391c-0.18-0.035-0.356,0.083-0.389,0.263
	C98.251,0.416,98.37,0.589,98.549,0.624L98.549,0.624L98.549,0.624L98.549,0.624z M92.408,25.176c0.002,0.535-0.024,1.1-0.078,1.672
	c0.486,0.028,0.975,0.045,1.463,0.047c0.146-0.535,0.295-1.095,0.451-1.676c-0.112,0.002-0.225,0.006-0.335,0.006
	C93.408,25.225,92.904,25.207,92.408,25.176L92.408,25.176L92.408,25.176z M92.061,29.691c0.315,0.028,0.633,0.049,0.949,0.065
	c0.143-0.518,0.295-1.067,0.454-1.653c-0.417-0.018-0.832-0.043-1.247-0.078C92.154,28.68,92.104,29.229,92.061,29.691
	L92.061,29.691z M85.197,23.906c-0.11,0.471-0.217,0.921-0.315,1.355c0.478,0.182,0.961,0.344,1.449,0.494
	c0.257-0.561,0.524-1.061,0.803-1.504c-0.63-0.186-1.252-0.395-1.866-0.63c-0.022,0.095-0.045,0.187-0.072,0.284l0,0H85.197z
	 M89.889,24.884c-0.507-0.084-1.009-0.185-1.509-0.305l0.327,1.782c0.415,0.088,0.83,0.164,1.249,0.227L89.889,24.884L89.889,24.884
	L89.889,24.884z M97.205,24.998c-0.389,0.054-0.782,0.097-1.172,0.131l0.318,1.65c0.334-0.032,0.668-0.069,1.006-0.114
	L97.205,24.998z M97.162,30.959l0.156,0.796h0.494l-0.074-0.839C97.546,30.932,97.355,30.945,97.162,30.959L97.162,30.959
	L97.162,30.959z M83.544,31.956c0.009,0.002,0.017,0.007,0.028,0.01h0.449c0,0,0.178-0.573,0.955-2.7
	c-0.293-0.104-0.588-0.215-0.879-0.328c-0.359,1.818-0.533,2.912-0.552,3.021l0,0L83.544,31.956L83.544,31.956z M97.471,27.966
	c-0.289,0.032-0.582,0.056-0.875,0.077l0.321,1.655c0.235-0.019,0.472-0.041,0.705-0.066L97.471,27.966L97.471,27.966z
	 M84.303,27.924c0.342,0.129,0.686,0.253,1.031,0.37c0.154-0.414,0.322-0.868,0.514-1.369c0.023-0.067,0.051-0.134,0.073-0.2
	c-0.424-0.14-0.846-0.291-1.265-0.453c-0.129,0.59-0.247,1.144-0.354,1.654l0,0V27.924L84.303,27.924z M91.855,31.967H92.4
	c0.088-0.322,0.184-0.668,0.285-1.042c-0.242-0.019-0.488-0.041-0.733-0.065C91.873,31.725,91.855,31.967,91.855,31.967
	L91.855,31.967z M90.001,27.744c-0.364-0.061-0.722-0.128-1.084-0.205l0.321,1.77c0.277,0.051,0.552,0.1,0.83,0.14L90.001,27.744z
	 M95.072,11.784c0.814-0.119,1.63-0.192,2.447-0.224c0.121-0.553,0.237-1.114,0.351-1.684c-0.724,0.014-1.45,0.064-2.175,0.141
	C95.492,10.632,95.283,11.226,95.072,11.784L95.072,11.784L95.072,11.784z M95.857,17.768c0.094-0.021,0.188-0.041,0.281-0.061
	c0.139-0.581,0.276-1.174,0.416-1.777c-0.359,0.058-0.714,0.129-1.068,0.208c-1.111,0.25-2.246,0.379-3.375,0.379
	c-0.197,0-0.393-0.004-0.588-0.012c-0.752,0.52-1.524,0.946-2.271,1.436c0.94,0.162,1.897,0.248,2.858,0.248
	c1.254,0,2.514-0.142,3.746-0.42l0,0V17.768z M96.863,14.562c0.128-0.562,0.253-1.133,0.381-1.715
	c-0.943,0.075-1.887,0.213-2.816,0.416c-0.408,0.785-0.871,1.41-1.359,1.933c0.5-0.058,1.004-0.141,1.498-0.255
	c0.761-0.17,1.529-0.296,2.299-0.379l0,0v-0.001L96.863,14.562z M89.455,30.484l0.268,1.468h0.446l-0.054-1.349
	C89.893,30.568,89.673,30.527,89.455,30.484L89.455,30.484L89.455,30.484L89.455,30.484z M93.132,19.415h-0.028
	c-0.08,0.002-0.153,0.002-0.232,0.004c-1.622,0.015-3.239-0.194-4.801-0.608c-0.451,0.385-0.881,0.83-1.275,1.373
	c1.816,0.566,3.709,0.875,5.616,0.904v0.008l0.954-0.011V21.08c0.662-0.021,1.328-0.078,1.992-0.167
	c0.14-0.569,0.285-1.156,0.431-1.756C94.908,19.309,94.02,19.393,93.132,19.415L93.132,19.415L93.132,19.415L93.132,19.415z
	 M86.225,21.1c-0.244,0.452-0.467,0.961-0.664,1.539c0.733,0.266,1.479,0.491,2.236,0.678c0.51-0.629,1.035-1.084,1.553-1.367
	C88.288,21.747,87.242,21.461,86.225,21.1L86.225,21.1z M89.794,22.545c-0.407,0.221-0.742,0.627-0.987,1.001
	c0.344,0.069,0.688,0.13,1.033,0.183L89.794,22.545z M91.816,22.27c0.269,0.42,0.435,1.013,0.52,1.705
	c0.32,0.012,0.641,0.019,0.963,0.019c0.428,0,0.85-0.013,1.277-0.033c0.145-0.553,0.292-1.121,0.441-1.708
	c-0.572,0.046-1.146,0.07-1.716,0.07C92.805,22.322,92.311,22.305,91.816,22.27L91.816,22.27L91.816,22.27L91.816,22.27z
	 M95.956,20.823c0.288-0.048,0.576-0.101,0.86-0.16l-0.151-1.677c-0.11,0.025-0.22,0.047-0.329,0.072L95.956,20.823L95.956,20.823z
	 M96.605,6.998c-0.157,0.569-0.322,1.139-0.492,1.7c0.552-0.036,1.107-0.056,1.66-0.056c0.113,0,0.231,0,0.348,0.002
	c0.111-0.549,0.22-1.104,0.327-1.667c-0.224-0.005-0.448-0.01-0.675-0.01c-0.391,0-0.781,0.012-1.168,0.029l0,0l0.002,0.002H96.605z
	 M96.936,22.012c-0.42,0.071-0.848,0.131-1.271,0.182l-0.107,0.492l0.227,1.174c0.436-0.047,0.871-0.104,1.304-0.178l-0.151-1.668
	l0,0V22.012z M96.939,5.741h0.225c0.505,0,1.01,0.012,1.514,0.039c0.104-0.544,0.204-1.096,0.305-1.656
	c-0.541-0.031-1.086-0.051-1.631-0.053c-0.127,0.544-0.266,1.107-0.412,1.672l0,0l0,0V5.741z M101.361,2.329l-0.252,0.42
	l-0.873-0.029c-0.307-0.06-0.781-0.11-0.982-0.126c-0.02,0.119-0.039,0.238-0.063,0.358c-0.519-0.044-1.039-0.076-1.563-0.095
	c0.063-0.294,0.1-0.467,0.121-0.588c0.084-0.416,0.072-0.578,0.076-0.818c0.002-0.098-0.023-0.204-0.193-0.238
	c-0.136-0.027-0.355-0.1-0.469-0.248c-0.189-0.255-0.033-0.652-0.033-0.652s0.467,0.019,0.656,0.277
	c0.111,0.143,0.105,0.35,0.08,0.472c-0.032,0.16,0.021,0.26,0.145,0.284C98.324,1.406,99.859,1.73,101.361,2.329L101.361,2.329
	L101.361,2.329L101.361,2.329z"/>
</svg>
