<svg height="42" version="1.1" width="180" xmlns="http://www.w3.org/2000/svg" id="svg-4-0" viewBox="0 0 180 42"><desc>Created with Snap</desc><defs></defs><path d="M 0 5.04 Q 0 0 5.04 0 L 156.06 0 Q 156.06 0 156.06 0 L 156.06 42 Q 156.06 42 156.06 42 L 5.04 42 Q 0 42 0 36.96 Z" fill="#000000" style="stroke-width: 0;"></path><path d="M 155.64 0 Q 155.64 0 155.64 0 L 174.96 0 Q 180 0 180 5.04 L 180 36.96 Q 180 42 174.96 42 L 155.64 42 Q 155.64 42 155.64 42 Z" fill="#e6761f" style="stroke-width: 0;"></path><g><svg viewBox="0 0 1648 286" xmlns="http://www.w3.org/2000/svg" width="135.0414" height="23.73311072056239" x="10.865399999999994" y="9.135000000000002"><title>masterpass-logo</title><desc>Created with Sketch.</desc><g fill="none"><path d="M1644.97 103.5c-9.98-6.57-23.75-9.95-38.92-9.95-24.15 0-39.72 11.54-39.72 30.44 0 15.52 11.58 25.07 32.94 28.05l9.78 1.39c11.37 1.59 16.77 4.58 16.77 9.95 0 7.36-7.59 11.54-21.76 11.54-14.37 0-24.75-4.58-31.74-9.95l-9.78 16.11c11.38 8.36 25.75 12.33 41.32 12.33 27.54 0 43.51-12.93 43.51-31.03 0-16.71-12.57-25.47-33.33-28.45l-9.78-1.39c-8.98-1.2-16.17-2.99-16.17-9.35 0-6.96 6.79-11.14 18.16-11.14 12.18 0 23.95 4.58 29.74 8.16l8.98-16.71zm-99.6 0c-9.98-6.57-23.75-9.95-38.92-9.95-24.15 0-39.72 11.54-39.72 30.44 0 15.52 11.57 25.07 32.93 28.05l9.78 1.39c11.38 1.59 16.77 4.58 16.77 9.95 0 7.36-7.58 11.54-21.76 11.54-14.37 0-24.75-4.58-31.74-9.95l-9.78 16.11c11.38 8.36 25.75 12.33 41.32 12.33 27.54 0 43.51-12.93 43.51-31.03 0-16.71-12.57-25.47-33.33-28.45l-9.78-1.39c-8.98-1.2-16.17-2.99-16.17-9.35 0-6.96 6.78-11.14 18.16-11.14 12.18 0 23.95 4.58 29.74 8.16l8.98-16.71h.01zm-237.72 39.59c0 16.71-10.98 30.44-28.94 30.44-17.17 0-28.74-13.13-28.74-30.44 0-17.31 11.57-30.44 28.74-30.44 17.97 0 28.94 13.72 28.94 30.44zm-77.24 0v81.96h20.76v-45.95c6.59 8.55 16.57 13.93 30.14 13.93 26.74 0 47.7-20.89 47.7-49.93s-20.96-49.93-47.7-49.93c-13.57 0-23.55 5.37-30.14 13.92v-11.54h-20.76v47.54zm135.13.2c0-16.71 10.98-30.44 28.94-30.44 17.17 0 28.74 13.13 28.74 30.44 0 17.31-11.58 30.44-28.74 30.44-17.96 0-28.94-13.72-28.94-30.44zm77.24 0v-47.54h-20.76v11.54c-6.58-8.56-16.56-13.93-30.14-13.93-26.75 0-47.7 20.89-47.7 49.93s20.96 49.93 47.7 49.93c13.57 0 23.55-5.37 30.14-13.93v11.54h20.76v-47.55.01zm-692.01 0c0-16.71 10.98-30.44 28.94-30.44 17.17 0 28.74 13.13 28.74 30.44 0 17.31-11.57 30.44-28.74 30.44-17.96 0-28.94-13.72-28.94-30.44zm77.24 0v-47.54h-20.76v11.54c-6.59-8.56-16.57-13.93-30.14-13.93-26.74 0-47.7 20.89-47.7 49.93s20.96 49.93 47.7 49.93c13.57 0 23.55-5.37 30.14-13.93v11.54h20.76v-47.55.01zm257.48-31.43c13.37 0 21.96 8.36 24.15 23.08h-49.5c2.2-13.73 10.58-23.08 25.35-23.08zm.4-18.5c-27.94 0-47.5 20.29-47.5 49.93 0 30.24 20.36 49.93 48.9 49.93 14.37 0 27.54-3.58 39.12-13.33l-10.18-15.32c-7.98 6.37-18.16 9.94-27.74 9.94-13.38 0-25.55-6.16-28.54-23.27h70.86c.2-2.59.4-5.17.4-7.96-.2-29.64-18.56-49.93-45.31-49.93l-.01.01zm-155.29 9.95c-9.98-6.57-23.75-9.95-38.92-9.95-24.15 0-39.72 11.54-39.72 30.44 0 15.52 11.58 25.07 32.93 28.05l9.78 1.39c11.38 1.59 16.77 4.57 16.77 9.94 0 7.36-7.58 11.54-21.76 11.54-14.37 0-24.75-4.58-31.74-9.95l-9.78 16.12c11.38 8.35 25.75 12.34 41.32 12.34 27.54 0 43.51-12.93 43.51-31.03 0-16.71-12.57-25.47-33.33-28.45l-9.78-1.39c-8.98-1.2-16.17-2.99-16.17-9.35 0-6.96 6.79-11.14 18.17-11.14 12.18 0 23.95 4.58 29.74 8.16l8.98-16.71v-.01zm267.66-9.95c-11.97 0-19.76 5.57-25.15 13.93v-11.54h-20.56v95.09h20.76v-53.32c0-15.72 6.78-24.47 20.36-24.47 4.19 0 8.58.6 12.97 2.39l6.39-19.5c-4.59-1.79-10.58-2.59-14.77-2.59v.01zm-177.04 2.39h-33.93v-28.85h-20.96v28.85h-19.36v18.9h19.36v43.36c0 22.08 8.58 35.21 33.14 35.21 8.98 0 19.36-2.79 25.95-7.36l-5.99-17.71c-6.19 3.58-12.98 5.37-18.37 5.37-10.38 0-13.77-6.37-13.77-15.91v-42.97h33.93v-18.9.01zm-310.17 95.09v-59.68c0-22.48-14.37-37.6-37.53-37.8-12.18-.2-24.75 3.58-33.53 16.91-6.59-10.54-16.97-16.91-31.54-16.91-10.18 0-20.16 2.98-27.95 14.13v-11.74h-20.76v95.09h20.96v-52.72c0-16.51 9.18-25.26 23.36-25.26 13.77 0 20.76 8.95 20.76 25.06v52.92h20.96v-52.72c0-16.51 9.58-25.26 23.35-25.26 14.17 0 20.96 8.95 20.96 25.06v52.92h20.96z" id="Shape" fill="#fff"></path><g><path fill="#FF5F00" d="M169.36 255.43h125.54v-224.85h-125.54z"></path><path d="M177.34 143c0-45.62 21.43-86.24 54.8-112.43-24.41-19.15-55.2-30.57-88.67-30.57-79.24 0-143.47 64.02-143.47 143s64.23 143 143.47 143c33.47 0 64.26-11.42 88.67-30.57-33.37-26.18-54.8-66.81-54.8-112.43" fill="#EC001B"></path><path d="M464.27 143c0 78.98-64.23 143-143.47 143-33.47 0-64.27-11.42-88.67-30.57 33.37-26.18 54.8-66.81 54.8-112.43 0-45.62-21.43-86.24-54.8-112.43 24.4-19.15 55.2-30.57 88.67-30.57 79.23 0 143.47 64.02 143.47 143" fill="#F89E1B"></path></g></g><defs></defs></svg></g><g><svg viewBox="0 0 134 232" xmlns="http://www.w3.org/2000/svg" width="11.76" height="20.171526586620928" x="162.35999999999999" y="10.948717948717949"><title>arrow</title><desc>Created with Sketch.</desc><path d="M15.4 231.91c-3.91 0-7.83-1.45-10.82-4.38-5.99-5.85-5.99-15.33 0-21.16l92-90.01-92-90c-5.99-5.85-5.99-15.33 0-21.18 5.97-5.84 15.67-5.84 21.64 0l102.83 100.58c5.98 5.85 5.98 15.34 0 21.19l-102.83 100.58c-2.98 2.93-6.91 4.38-10.82 4.38" fill="#fff"></path><defs></defs></svg></g></svg>