<svg width="48" height="39" viewBox="0 0 48 39" xmlns="http://www.w3.org/2000/svg"><title>acc/global/mp_mark_ver_blk</title><desc>Created with Sketch.</desc><g fill="none"><path d="M47.894 33.62c-.44-.291-1.048-.44-1.718-.44-1.066 0-1.753.51-1.753 1.347 0 .687.511 1.109 1.454 1.242l.432.061c.502.07.74.203.74.441 0 .326-.335.51-.96.51-.635 0-1.092-.202-1.4-.44l-.432.713c.502.37 1.136.546 1.823.546 1.216 0 1.921-.572 1.921-1.373 0-.74-.555-1.127-1.471-1.26l-.432-.061c-.396-.053-.713-.132-.713-.414 0-.308.3-.493.802-.493.537 0 1.057.203 1.313.361l.396-.74zm-4.396 0c-.44-.291-1.048-.44-1.718-.44-1.066 0-1.753.51-1.753 1.347 0 .687.511 1.109 1.453 1.242l.432.061c.502.07.74.203.74.441 0 .326-.335.51-.96.51-.634 0-1.092-.202-1.4-.44l-.432.713c.502.37 1.136.546 1.823.546 1.216 0 1.921-.572 1.921-1.373 0-.74-.555-1.127-1.471-1.26l-.432-.061c-.397-.053-.713-.132-.713-.414 0-.308.299-.493.801-.493.537 0 1.057.203 1.313.361l.396-.74zm-10.491 1.752c0 .74-.484 1.347-1.277 1.347-.758 0-1.269-.581-1.269-1.347s.511-1.347 1.269-1.347c.793 0 1.277.608 1.277 1.347zm-3.409 0v3.628h.916v-2.034c.291.379.731.616 1.33.616 1.18 0 2.105-.924 2.105-2.21s-.925-2.21-2.105-2.21c-.599 0-1.039.238-1.33.616v-.51h-.916v2.104zm5.964.009c0-.74.485-1.347 1.278-1.347.757 0 1.268.581 1.268 1.347s-.511 1.347-1.268 1.347c-.793 0-1.278-.607-1.278-1.347zm3.409 0v-2.105h-.916v.511c-.291-.379-.731-.616-1.331-.616-1.18 0-2.105.924-2.105 2.21s.925 2.21 2.105 2.21c.599 0 1.04-.238 1.331-.617v.511h.916v-2.105zm-30.54 0c0-.74.484-1.347 1.277-1.347.757 0 1.269.581 1.269 1.347s-.511 1.347-1.269 1.347c-.793 0-1.277-.607-1.277-1.347zm3.409 0v-2.105h-.916v.511c-.291-.379-.731-.616-1.33-.616-1.181 0-2.105.924-2.105 2.21s.925 2.21 2.105 2.21c.599 0 1.039-.238 1.33-.617v.511h.916v-2.105zm11.363-1.391c.59 0 .969.37 1.066 1.022h-2.185c.097-.608.467-1.022 1.119-1.022zm.017-.819c-1.233 0-2.096.898-2.096 2.21 0 1.338.899 2.21 2.158 2.21.634 0 1.216-.159 1.727-.59l-.45-.678c-.352.282-.801.44-1.224.44-.591 0-1.128-.273-1.26-1.03h3.127l.018-.352c-.009-1.312-.819-2.21-2-2.21zm-6.853.44c-.441-.291-1.048-.44-1.718-.44-1.066 0-1.753.51-1.753 1.347 0 .687.511 1.11 1.453 1.242l.432.062c.502.07.74.202.74.44 0 .326-.335.511-.96.511-.635 0-1.093-.203-1.401-.441l-.432.713c.502.37 1.137.546 1.824.546 1.216 0 1.92-.573 1.92-1.374 0-.74-.555-1.127-1.471-1.259l-.432-.062c-.396-.052-.713-.132-.713-.414 0-.308.3-.493.801-.493.538 0 1.057.203 1.313.361l.397-.74zm11.813-.44c-.529 0-.872.246-1.11.616v-.511h-.907v4.209h.916v-2.36c0-.696.299-1.083.898-1.083.185 0 .379.026.573.106l.282-.863c-.202-.079-.467-.114-.652-.114zm-7.814.105h-1.497v-1.277h-.925v1.277h-.855v.837h.855v1.92c0 .977.379 1.559 1.462 1.559.397 0 .854-.123 1.145-.326l-.264-.784c-.273.158-.573.238-.811.238-.458 0-.608-.282-.608-.704v-1.902h1.497v-.837zm-13.689 4.209v-2.641c0-.995-.634-1.664-1.656-1.673-.537-.009-1.092.158-1.48.748-.29-.466-.748-.748-1.391-.748-.449 0-.89.132-1.234.625v-.52h-.916v4.209h.925v-2.333c0-.731.405-1.118 1.031-1.118.608 0 .916.396.916 1.109v2.342h.925v-2.333c0-.731.423-1.118 1.031-1.118.625 0 .925.396.925 1.109v2.342h.925z" fill="#000"/><path fill="#FF5F00" d="M10.5 26.091h27v-22.979h-27z"/><path d="M18.334 14.609c0-4.659 2.216-8.81 5.666-11.485-2.523-1.956-5.707-3.123-9.167-3.123-8.192 0-14.833 6.541-14.833 14.609 0 8.067 6.641 14.609 14.833 14.609 3.461 0 6.645-1.167 9.167-3.123-3.449-2.675-5.666-6.825-5.666-11.485" fill="#EC001B"/><path d="M48 14.609c0 8.067-6.641 14.609-14.833 14.609-3.461 0-6.643-1.167-9.167-3.123 3.451-2.675 5.666-6.825 5.666-11.485 0-4.659-2.215-8.81-5.666-11.485 2.524-1.956 5.707-3.123 9.167-3.123 8.192 0 14.833 6.541 14.833 14.609" fill="#F89E1B"/></g></svg>