<svg xmlns="http://www.w3.org/2000/svg" viewBox="0 0 42 32"><defs><style>.cls-1{fill:#f0eeeb;}.cls-2{fill:#e89b25;}.cls-3{fill:#2c2c70;}</style></defs><title>Asset 5</title><g id="Layer_2" data-name="Layer 2"><g id="Layer_1-2" data-name="Layer 1"><rect class="cls-1" y="6.59" width="42" height="17.88"/><path class="cls-2" d="M2.74,32H39.26A2.78,2.78,0,0,0,42,29.18V24.47H0v4.71A2.78,2.78,0,0,0,2.74,32Z"/><path class="cls-3" d="M39.26,0H2.74A2.78,2.78,0,0,0,0,2.82V7.53H42V2.82A2.78,2.78,0,0,0,39.26,0Z"/><polygon class="cls-3" points="16.65 20.52 19.03 20.52 20.52 11.66 18.14 11.66 16.65 20.52"/><path class="cls-3" d="M25.33,15.22c-.83-.41-1.34-.68-1.34-1.1s.43-.76,1.36-.76a4.26,4.26,0,0,1,2,.44l.32-1.92a6.08,6.08,0,0,0-2.14-.37c-2.35,0-4,1.2-4,2.92,0,1.27,1.18,2,2.09,2.41s1.24.71,1.24,1.1c0,.59-.74.87-1.43.87a5.16,5.16,0,0,1-2.55-.61l-.33,2a7.46,7.46,0,0,0,2.66.47c2.51,0,4.13-1.19,4.15-3C27.34,16.62,26.7,15.85,25.33,15.22Z"/><path class="cls-3" d="M33.79,11.67H31.95a1.18,1.18,0,0,0-1.25.73l-3.54,8.12h2.5l.5-1.33h3.05c.07.31.29,1.33.29,1.33h2.21Zm-2.94,5.71c.1-.26,1.07-2.79,1.27-3.32.32,1.53,0,0,.71,3.32Z"/><path class="cls-3" d="M14.65,11.67l-2.33,6-.25-1.23-.84-4.07a1,1,0,0,0-1.08-.75H6.31l0,.18a10,10,0,0,1,2.5,1l2.12,7.7h2.52l3.75-8.84H14.65Z"/></g></g></svg>