<?xml version="1.0" encoding="utf-8"?>
<!-- Generated by IcoMoon.io -->
<!DOCTYPE svg PUBLIC "-//W3C//DTD SVG 1.1//EN" "http://www.w3.org/Graphics/SVG/1.1/DTD/svg11.dtd">
<svg version="1.1" xmlns="http://www.w3.org/2000/svg" xmlns:xlink="http://www.w3.org/1999/xlink" width="51" height="32" viewBox="0 0 51 32">
<path fill="#fefefe" d="M3.897 31.64c-1.936 0-3.511-1.574-3.511-3.51v-24.259c0-1.936 1.575-3.511 3.511-3.511h43.409c1.937 0 3.511 1.575 3.511 3.511v24.258c0 1.936-1.574 3.51-3.511 3.51h-43.409z"></path>
<path fill="#bbbdbf" d="M47.306 0.040h-43.409c-2.115 0-3.83 1.716-3.83 3.83v24.258c0 2.115 1.715 3.83 3.83 3.83h43.409c2.115 0 3.829-1.715 3.829-3.83v-24.257c0-2.115-1.715-3.831-3.829-3.831zM47.306 0.68c1.76 0 3.191 1.432 3.191 3.192v24.258c0 1.759-1.431 3.191-3.191 3.191h-43.409c-1.76 0-3.192-1.432-3.192-3.191v-24.258c0-1.76 1.432-3.192 3.192-3.192h43.409z"></path>
<path fill="#2b73a0" d="M32.635 11.306c-0.52-0.2-1.333-0.413-2.351-0.413-2.591 0-4.418 1.334-4.433 3.244-0.014 1.414 1.304 2.201 2.299 2.673 1.022 0.482 1.363 0.788 1.359 1.22-0.006 0.659-0.814 0.959-1.57 0.959-1.049 0-1.608-0.148-2.468-0.516l-0.338-0.156-0.369 2.2c0.612 0.275 1.746 0.514 2.923 0.524 2.756 0 4.547-1.318 4.566-3.358 0.010-1.12-0.689-1.971-2.202-2.673-0.916-0.455-1.478-0.758-1.473-1.219 0-0.409 0.476-0.845 1.503-0.845 0.858-0.013 1.48 0.177 1.963 0.376l0.236 0.114 0.356-2.131h-0.003z"></path>
<path fill="#2b73a0" d="M36.126 17.412c0.218-0.566 1.046-2.749 1.046-2.749-0.015 0.026 0.214-0.569 0.348-0.938l0.177 0.848c0 0 0.502 2.346 0.608 2.84h-2.178zM39.361 11.074h-2.027c-0.627 0-1.098 0.175-1.373 0.815l-3.896 9.011h2.755c0 0 0.45-1.212 0.552-1.478 0.301 0 2.976 0.004 3.359 0.004 0.078 0.344 0.319 1.473 0.319 1.473h2.434l-2.124-9.826z"></path>
<path fill="#2b73a0" d="M20.501 20.897l1.64-9.834h2.623l-1.641 9.834h-2.622z"></path>
<path fill="#2b73a0" d="M18.301 11.071l-2.568 6.704-0.274-1.362c-0.478-1.571-1.968-3.273-3.633-4.125l2.348 8.6 2.776-0.003 4.128-9.814h-2.777z"></path>
<path fill="#d6a666" d="M13.351 11.065h-4.23l-0.033 0.205c3.29 0.813 5.468 2.78 6.371 5.144l-0.92-4.518c-0.159-0.623-0.619-0.809-1.189-0.83h0.001z"></path>
</svg>
