<?xml version="1.0" encoding="UTF-8"?>
<svg width="22px" height="39px" viewBox="0 0 22 39" version="1.1" xmlns="http://www.w3.org/2000/svg" xmlns:xlink="http://www.w3.org/1999/xlink">
    <!-- Generator: Sketch 41.2 (35397) - http://www.bohemiancoding.com/sketch -->
    <title>Logo</title>
    <desc>Created with Sketch.</desc>
    <defs></defs>
    <g id="Symbols" stroke="none" stroke-width="1" fill="none" fill-rule="evenodd">
        <g id="Menu" transform="translate(-35.000000, -13.000000)" fill="#4B4F56">
            <g id="Logo-Mark" transform="translate(35.000000, 13.000000)">
                <path d="M18.1042781,0.795126918 C18.3230609,0.838115782 18.5320767,0.697424954 18.5750519,0.478572554 C18.6180271,0.261674193 18.477381,0.0506379504 18.2605516,0.00764908616 C18.0417687,-0.0353397781 17.8307996,0.10730509 17.7878244,0.32420345 C17.7448492,0.541101811 17.8874487,0.752138054 18.1042781,0.795126918 L18.1042781,0.795126918 Z M10.6930102,30.5102023 C10.696917,31.1569893 10.6637089,31.8409031 10.6011995,32.532633 C11.1872249,32.5697597 11.7771572,32.5893001 12.3670894,32.5912542 C12.5409436,31.9444672 12.7226115,31.2664155 12.9081862,30.5629614 C12.7753538,30.5649154 12.6405679,30.5688235 12.5057821,30.5688235 C11.9002225,30.5688235 11.2966164,30.5492831 10.6930102,30.5102023 L10.6930102,30.5102023 Z M10.2730253,35.9756502 C10.6558952,36.0088689 11.0368118,36.0362254 11.4196817,36.0557658 C11.5915825,35.4304732 11.7752038,34.7621918 11.9685921,34.0548296 C11.4665637,34.0352892 10.9645353,34.0040246 10.4644603,33.9610357 C10.388277,34.7524216 10.3257676,35.416795 10.2730253,35.9756502 L10.2730253,35.9756502 Z M1.99443979,28.9723734 C1.85965395,29.5409988 1.73268177,30.0900839 1.61352328,30.6176745 C2.18978159,30.8326188 2.77190016,31.0319308 3.35987898,31.2136565 C3.67047244,30.5375589 3.99473983,29.9298527 4.33072773,29.3924919 C3.57084812,29.1697314 2.82073561,28.9157063 2.08039018,28.6304165 C2.05108891,28.7437508 2.02178764,28.8570851 1.99443979,28.9723734 L1.99443979,28.9723734 Z M7.65153834,30.1584753 C7.04207193,30.0549112 6.43651234,29.9318067 5.8348596,29.7911159 L6.2255432,31.9483752 C6.72561821,32.0519393 7.22960005,32.1437792 7.7335819,32.2219407 L7.65153834,30.1584753 L7.65153834,30.1584753 Z M16.4829412,30.297212 C16.010214,30.3597413 15.5374869,30.4144544 15.0647597,30.4554892 L15.4515365,32.4505633 C15.855894,32.4114826 16.2602515,32.3665396 16.6626556,32.3118265 L16.4829412,30.297212 L16.4829412,30.297212 Z M16.4301989,37.509571 L16.6157736,38.4709584 L17.2135195,38.4709584 L17.1236623,37.4548579 C16.8931589,37.4763524 16.6607022,37.4939387 16.4301989,37.509571 L16.4301989,37.509571 Z M0,38.7171673 C0.00976709005,38.7210754 0.0195341801,38.7249835 0.0293012701,38.7288916 L0.570398059,38.7288916 C0.570398059,38.7288916 0.78527404,38.0332536 1.72682152,35.4597838 C1.37129944,35.3327713 1.01773078,35.1998966 0.666115541,35.0611598 C0.228549907,37.2633621 0.0195341801,38.5842927 0,38.7171673 L0,38.7171673 Z M16.8033017,33.8848282 C16.4516865,33.923909 16.1000712,33.9551736 15.748456,33.9825301 L16.1352328,35.9834664 C16.4184784,35.9600179 16.701724,35.9326613 16.9849696,35.9013967 L16.8033017,33.8848282 L16.8033017,33.8848282 Z M0.914199629,33.8379312 C1.32637083,33.9942544 1.74049545,34.1427614 2.1585269,34.2834522 C2.34214819,33.7851722 2.54725708,33.2341331 2.77580699,32.6264269 C2.80510826,32.5443572 2.83636295,32.4661957 2.86761764,32.38608 C2.3538687,32.2141246 1.84598002,32.0323989 1.34004475,31.835041 C1.18377131,32.5502193 1.0411718,33.2185008 0.914199629,33.8379312 L0.914199629,33.8379312 Z M10.0288481,38.7288916 L10.6871499,38.7288916 C10.7926345,38.3380837 10.9078862,37.9179653 11.0309515,37.4704903 C10.734032,37.4450877 10.4390658,37.4196852 10.1440997,37.3884206 C10.0503357,38.4338316 10.0288481,38.7288916 10.0288481,38.7288916 L10.0288481,38.7288916 Z M7.79023102,33.6190788 C7.35266539,33.5448253 6.91705317,33.4627557 6.48339437,33.3709158 L6.87212456,35.5125429 C7.20420562,35.5731181 7.5382401,35.6317393 7.87227458,35.6844984 L7.79023102,33.6190788 L7.79023102,33.6190788 Z M13.9063828,14.3034005 C14.8889521,14.1607556 15.8773816,14.0708698 16.8638577,14.0337431 C17.0045038,13.3635076 17.1471033,12.6835019 17.2877494,11.9956801 C16.4126181,12.0152205 15.5355334,12.0718876 14.6604022,12.1676356 C14.4142715,12.9121245 14.1622806,13.6292569 13.9063828,14.3034005 L13.9063828,14.3034005 Z M14.855744,21.543116 C14.9670888,21.5177135 15.080387,21.4962191 15.1936853,21.4727706 C15.3597258,20.7673625 15.5277198,20.05023 15.6957137,19.3174653 C15.2640083,19.3897648 14.8342564,19.4737884 14.4064578,19.5714904 C13.0664131,19.8763205 11.697067,20.0306896 10.3335813,20.0306896 C10.0972177,20.0306896 9.86085411,20.0248275 9.62449053,20.0150573 C8.72201141,20.644258 7.78632419,21.1620784 6.88579848,21.7541523 C8.02073435,21.9515103 9.17520439,22.0531203 10.3335813,22.0531203 C11.8474802,22.0531203 13.3691929,21.8811648 14.855744,21.543116 L14.855744,21.543116 Z M16.07077,17.6643481 C16.2231366,16.9843424 16.3755032,16.2926125 16.5298232,15.5891583 C15.3890271,15.6809982 14.2521378,15.8509996 13.1308759,16.0933005 C12.6366611,17.0429636 12.0818904,17.8011308 11.4880513,18.4342395 C12.0955643,18.3638941 12.6991705,18.26033 13.2969164,18.1255013 C14.2130694,17.9164191 15.140943,17.7640041 16.07077,17.6643481 L16.07077,17.6643481 Z M7.13192915,36.9370375 L7.45228971,38.7132592 L7.99143308,38.7132592 L7.92697028,37.0816364 C7.66130543,37.0366935 7.39564059,36.9878426 7.13192915,36.9370375 L7.13192915,36.9370375 Z M11.5681415,23.5362361 L11.5310265,23.5381902 C11.4392159,23.5401442 11.3454518,23.5420982 11.2536412,23.5420982 C9.29631631,23.5616386 7.34485172,23.3095676 5.45784992,22.8073795 C4.91284629,23.2743949 4.39519052,23.8117557 3.92246336,24.4683129 C6.11224495,25.1541806 8.39579061,25.5274021 10.6988704,25.5625749 L10.6988704,25.570391 L11.2731753,25.5645289 L11.2790356,25.5645289 L11.8474802,25.5606208 L11.8474802,25.5528047 C12.6483816,25.5274021 13.4512364,25.4590108 14.2501844,25.3515386 C14.4220852,24.6598087 14.5978928,23.9524465 14.7737004,23.2255439 C13.711041,23.4072695 12.6366611,23.5127876 11.5681415,23.5362361 L11.5681415,23.5362361 Z M3.23095339,25.5782072 C2.9398941,26.1233841 2.67032242,26.7389065 2.43200542,27.4404066 C3.31690378,27.7608691 4.21742948,28.0344346 5.12772228,28.2630571 C5.74304895,27.5009818 6.3779098,26.9499427 7.00495698,26.6040778 C5.72351477,26.3598229 4.46356015,26.015912 3.23095339,25.5782072 L3.23095339,25.5782072 Z M7.54019352,27.3270723 C7.0498856,27.5947757 6.64357465,28.0832855 6.34860853,28.5385767 C6.76273315,28.6206463 7.17881119,28.6948998 7.59684264,28.7593831 L7.54019352,27.3270723 L7.54019352,27.3270723 Z M9.97805919,26.9948857 C10.3023266,27.5029359 10.5015752,28.2181142 10.6051064,29.0544431 C10.9918831,29.0720294 11.3806133,29.0817996 11.7693435,29.0817996 C12.2830924,29.0817996 12.7968414,29.0661673 13.3105903,29.0368567 C13.4844445,28.3705293 13.6602521,27.6827075 13.84192,26.9733912 C13.15041,27.0281043 12.4608535,27.0574149 11.7712969,27.0574149 C11.1715976,27.0574149 10.5738517,27.0359205 9.97805919,26.9948857 L9.97805919,26.9948857 Z M14.9768559,25.2421124 C15.3226109,25.1854453 15.6683659,25.120962 16.0141208,25.0486625 L15.832453,23.0184157 C15.6996205,23.0477263 15.5667881,23.0770369 15.4339557,23.1024394 L14.9768559,25.2421124 L14.9768559,25.2421124 Z M15.7562697,8.50967402 C15.5667881,9.19944988 15.3694929,9.88922575 15.164384,10.5672774 C15.832453,10.5242885 16.5005219,10.498886 17.1666375,10.498886 C17.3072836,10.498886 17.4479297,10.50084 17.5885758,10.5027941 C17.7214082,9.84037477 17.8522872,9.16818525 17.9831662,8.48817958 C17.7116411,8.48036343 17.440116,8.47645535 17.1685909,8.47645535 C16.6978171,8.47645535 16.2270434,8.49013362 15.7562697,8.50967402 L15.7562697,8.50967402 Z M16.1586738,26.6802853 C15.6488317,26.7682171 15.1350827,26.8405165 14.6213338,26.8971837 L14.4924082,27.4970737 L14.7678402,28.9157063 C15.2933096,28.8590391 15.8168256,28.7867397 16.3403417,28.7007619 L16.1586738,26.6802853 L16.1586738,26.6802853 Z M16.1606272,6.98943145 C16.2504844,6.98943145 16.3403417,6.98747741 16.4301989,6.98747741 C17.0416187,6.98747741 17.6510851,7.00506377 18.2585981,7.03632839 C18.3836169,6.37586312 18.5066822,5.70758168 18.6277941,5.03148409 C17.9733991,4.9924033 17.3170507,4.97090887 16.6607022,4.96700079 C16.5044288,5.62551203 16.3383882,6.30356366 16.1606272,6.98943145 L16.1606272,6.98943145 Z M21.4993186,2.8585924 L21.1945854,3.36859666 L20.1397397,3.33146991 C19.7705437,3.2611245 19.1962388,3.20250332 18.9559684,3.17905485 C18.9305739,3.32365375 18.9051795,3.46825266 18.8797851,3.61089753 C18.2527379,3.55813847 17.6237373,3.52101172 16.9927833,3.49951729 C17.07092,3.1419281 17.1158486,2.9328459 17.1431965,2.78629295 C17.2408674,2.28215081 17.22524,2.08479285 17.2330537,1.79754907 C17.2369605,1.68030671 17.2076592,1.54938608 17.0005969,1.50835126 C16.8345564,1.47708663 16.5688916,1.38915486 16.4341057,1.20742921 C16.2055558,0.896736961 16.3950374,0.419951375 16.3950374,0.419951375 C16.3950374,0.419951375 16.9556683,0.443399847 17.1861717,0.752138054 C17.3170507,0.929955629 17.3111904,1.18007266 17.2818891,1.3266256 C17.2447742,1.52007549 17.3072836,1.63927189 17.4557433,1.66858248 C17.832753,1.74283597 19.6845933,2.13364383 21.4993186,2.8585924 L21.4993186,2.8585924 Z" id="Mark"></path>
            </g>
        </g>
    </g>
</svg>