<svg width="24" height="18" viewBox="0 0 24 18" xmlns="http://www.w3.org/2000/svg" xmlns:xlink="http://www.w3.org/1999/xlink"><title>amex</title><defs><path id="a" d="M12 5h12V0H0v5h12z"/><path id="c" d="M0 18h24V0H0z"/></defs><g fill="none" fill-rule="evenodd"><g transform="translate(0 13)"><mask id="b" fill="#fff"><use xlink:href="#a"/></mask><path d="M23.087 5H.913A.913.913 0 0 1 0 4.087V0h24v4.087a.913.913 0 0 1-.913.913" fill="#245A9B" mask="url(#b)"/></g><mask id="d" fill="#fff"><use xlink:href="#c"/></mask><path fill="#477BBA" mask="url(#d)" d="M0 13h24V5H0z"/><path d="M.913 0h22.174c.504 0 .913.408.913.913V5H0V.913C0 .408.409 0 .913 0" fill="#245A9B" mask="url(#d)"/><path fill="#FFF" mask="url(#d)" d="M8 10h8V8H8z"/></g></svg>