<svg width="24" height="18" viewBox="0 0 24 18" xmlns="http://www.w3.org/2000/svg" xmlns:xlink="http://www.w3.org/1999/xlink"><title>mastercard</title><defs><path id="a" d="M12 18h12V0H0v18h12z"/></defs><g fill="none" fill-rule="evenodd"><g><mask id="b" fill="#fff"><use xlink:href="#a"/></mask><path d="M23.087 0H.913A.913.913 0 0 0 0 .913v16.174c0 .505.409.913.913.913h22.174a.913.913 0 0 0 .913-.913V.913A.913.913 0 0 0 23.087 0" fill="#F8F8F9" mask="url(#b)"/></g><path d="M4 9a4.5 4.5 0 1 0 9 0 4.5 4.5 0 0 0-9 0" fill="#EC3636"/><path d="M11 9a4.5 4.5 0 1 0 9 0 4.5 4.5 0 0 0-9 0" fill="#FF9D0B"/></g></svg>