<svg width="16" height="19" viewBox="0 0 16 19" xmlns="http://www.w3.org/2000/svg"><title>reload</title><path d="M8.537 3.418c1.366 0 2.504.456 3.643 1.14H9.106v2.278h6.83V0H13.66v2.848C12.18 1.71 10.472 1.14 8.537 1.14 4.097 1.14.341 4.557 0 9.001l2.277.228c.227-3.304 2.96-5.81 6.26-5.81zM7.4 14.812c-1.366 0-2.504-.456-3.643-1.14H6.83v-2.278H0v6.836h2.277v-2.848c1.48 1.139 3.187 1.709 5.122 1.709 4.44 0 8.196-3.419 8.537-7.862L13.66 9c-.228 3.304-2.96 5.81-6.261 5.81z" fill="#74797B" fill-rule="evenodd"/></svg>