<svg width="24" height="18" viewBox="0 0 24 18" xmlns="http://www.w3.org/2000/svg" xmlns:xlink="http://www.w3.org/1999/xlink"><title>unionpay</title><defs><path d="M1.438 1.998C1.702.895 2.813 0 3.922 0h9.988c1.108 0 1.794.887 1.528 1.998l-.96 4.004C14.215 7.105 13.104 8 11.995 8H2.006C.898 8 .212 7.113.479 6.002l.959-4.004z" id="a"/></defs><g fill="none" fill-rule="evenodd"><path d="M.912 0A.913.913 0 0 0 0 .913v16.174c0 .505.408.913.912.913h22.175a.913.913 0 0 0 .913-.913V.913A.913.913 0 0 0 23.087 0H.912z" fill="#F8F8F9"/><g transform="translate(4 5)"><mask id="b" fill="#fff"><use xlink:href="#a"/></mask><use fill="#F5F5F5" xlink:href="#a"/><g opacity=".8" mask="url(#b)"><path fill="#DC393F" d="M1.916 0h4L4 8H0z"/><path fill="#178287" d="M11.916 0h4L14 8h-4z"/><path fill="#044D84" d="M6.916 0h4L9 8H5z"/></g></g></g></svg>